<?xml version="1.0" encoding="UTF-8" standalone="no"?>
<!DOCTYPE svg PUBLIC "-//W3C//DTD SVG 1.1//EN" "http://www.w3.org/Graphics/SVG/1.1/DTD/svg11.dtd">
<svg width="100%" height="100%" viewBox="0 0 1200 1200" version="1.1" xmlns="http://www.w3.org/2000/svg" xmlns:xlink="http://www.w3.org/1999/xlink" xml:space="preserve" xmlns:serif="http://www.serif.com/" style="fill-rule:evenodd;clip-rule:evenodd;stroke-linejoin:round;stroke-miterlimit:2;">
    <g transform="matrix(1.89873,0,0,1.7341,1556.8,-749.28)">
        <rect x="-819.915" y="432.085" width="632" height="692"/>
    </g>
    <g transform="matrix(1.24102,0,0,1.24102,-82.2166,3.45684)">
        <g>
            <g>
                <g transform="matrix(0.312187,-0.0247763,0.0791149,0.996865,424.233,-218.761)">
                    <path d="M893.701,666.855L729.421,666.855L714.605,660.188L893.755,660.188L893.701,666.855ZM893.617,677.188L710.394,677.188L722.97,670.521L893.671,670.521L893.617,677.188Z" style="fill:rgb(190,80,30);"/>
                </g>
                <g transform="matrix(0.584423,-0.046382,0.0791149,0.996865,336.241,-211.778)">
                    <path d="M716.221,660.188L932.118,660.188L932.118,677.188L716.147,677.188L716.176,670.521L920.746,670.521L920.746,666.855L716.192,666.855L716.221,660.188Z" style="fill:rgb(190,80,30);"/>
                </g>
                <g transform="matrix(1.28346,-0.10186,0.086428,1.08901,-275.219,-224.881)">
                    <path d="M794.618,655.988L794.618,679.788L762.618,679.788L762.618,655.988L794.618,655.988ZM789.44,662.091L767.796,662.091L767.796,673.685L789.44,673.685L789.44,662.091Z" style="fill:rgb(190,80,30);"/>
                </g>
                <g transform="matrix(0.944712,0,0,1,12.6799,91.3333)">
                    <path d="M831.55,440.188L754.936,440.188C750.531,430.07 739.988,422.938 727.697,422.938C715.405,422.938 704.863,430.07 700.457,440.188L692.792,440.188C688.387,430.07 677.844,422.938 665.553,422.938C653.261,422.938 642.719,430.07 638.313,440.188L630.648,440.188C626.242,430.07 615.7,422.938 603.408,422.938C591.117,422.938 580.575,430.07 576.169,440.188L568.504,440.188C564.098,430.07 553.556,422.938 541.264,422.938C528.973,422.938 518.43,430.07 514.025,440.188L506.36,440.188C501.954,430.07 491.412,422.938 479.12,422.938C466.829,422.938 456.286,430.07 451.881,440.188L444.215,440.188C439.81,430.07 429.267,422.938 416.976,422.938C404.684,422.938 394.142,430.07 389.736,440.188L382.071,440.188C377.666,430.07 367.123,422.938 354.832,422.938C342.54,422.938 331.998,430.07 327.592,440.188L258.082,440.188C253.648,436.081 250.896,430.359 250.896,424.035C250.896,414.351 257.35,406.08 266.413,402.855L229.341,402.855L229.341,352.188L368.008,352.188L446.691,371.188L446.691,383.521L844.75,383.521L867.217,402.194L831.55,440.188ZM385.904,432.665C392.334,422.83 403.851,416.271 416.976,416.271C430.101,416.271 441.617,422.83 448.048,432.665C454.479,422.83 465.995,416.271 479.12,416.271C492.245,416.271 503.762,422.83 510.192,432.665C516.623,422.83 528.139,416.271 541.264,416.271C554.389,416.271 565.906,422.83 572.336,432.665C578.767,422.83 590.284,416.271 603.408,416.271C616.533,416.271 628.05,422.83 634.481,432.665C640.911,422.83 652.428,416.271 665.553,416.271C678.678,416.271 690.194,422.83 696.625,432.665C703.055,422.83 714.572,416.271 727.697,416.271C741.199,416.271 752.999,423.213 759.311,433.521L828.376,433.521L857.237,402.779L842.088,390.188L446.691,390.188C442.794,390.188 439.634,387.203 439.634,383.521L439.634,376.365L367.12,358.855L236.398,358.855L236.398,396.188L266.413,396.188C269.823,396.188 272.745,398.491 273.356,401.66C273.967,404.829 272.092,407.958 268.901,409.093C262.507,411.369 257.953,417.203 257.953,424.035C257.953,427.587 259.184,430.869 261.265,433.521L323.218,433.522C329.529,423.213 341.33,416.271 354.832,416.271C367.957,416.271 379.473,422.83 385.904,432.665Z" style="fill:rgb(190,80,30);"/>
                </g>
                <g transform="matrix(1,0,0,1,-1.13687e-13,91.3333)">
                    <path d="M365.565,347.438L354.315,324.938L376.065,307.938L539.407,307.938L682.157,317.688L698.657,337.688L678.157,377.438L447.407,377.438L447.407,367.688L365.565,347.438ZM370.152,341.705L449.009,361.216C451.984,361.953 454.074,364.623 454.074,367.688L454.074,370.771L674.094,370.771L690.717,338.539L678.841,324.144L539.18,314.605L378.361,314.605L362.716,326.833L370.152,341.705Z" style="fill:rgb(190,80,30);"/>
                </g>
                <g transform="matrix(1,0,0,1,0,91.3333)">
                    <path d="M320.082,450.548L320.081,450.75C320.081,466.101 332.543,478.563 347.894,478.563C363.244,478.563 375.706,466.101 375.706,450.75L375.705,450.548L378.79,450.548L378.789,450.75C378.789,466.101 391.252,478.563 406.602,478.563C421.952,478.563 434.414,466.101 434.414,450.75L434.414,450.548L437.498,450.548L437.498,450.75C437.498,466.101 449.96,478.563 465.31,478.563C480.66,478.563 493.123,466.101 493.123,450.75L493.122,450.548L496.207,450.548L496.206,450.75C496.206,466.101 508.668,478.563 524.019,478.563C539.369,478.563 551.831,466.101 551.831,450.75L551.83,450.548L554.915,450.548L554.914,450.75C554.914,466.101 567.377,478.563 582.727,478.563C598.077,478.563 610.539,466.101 610.539,450.75L610.539,450.548L613.623,450.548L613.623,450.75C613.623,466.101 626.085,478.563 641.435,478.563C656.785,478.563 669.248,466.101 669.248,450.75L669.247,450.548L672.332,450.548L672.331,450.75C672.331,466.101 684.793,478.563 700.144,478.563C715.494,478.563 727.956,466.101 727.956,450.75L727.955,450.548L795.528,450.548L725.119,487.188L341.619,487.188L276.803,450.548L320.082,450.548ZM658.829,480.521L682.75,480.521C677.872,477.663 673.758,473.641 670.789,468.836C667.821,473.641 663.707,477.663 658.829,480.521ZM600.12,480.521L624.042,480.521C619.164,477.663 615.049,473.641 612.081,468.836C609.113,473.641 604.998,477.663 600.12,480.521ZM365.287,480.521L389.209,480.521C384.331,477.663 380.216,473.641 377.248,468.836C374.279,473.641 370.165,477.663 365.287,480.521ZM316.696,465.441C315.477,462.858 314.569,460.1 314.02,457.215L302.143,457.215L316.696,465.441ZM717.537,480.521L723.488,480.521L768.276,457.215L734.017,457.215C732.13,467.147 725.976,475.577 717.537,480.521ZM541.412,480.521L565.334,480.521C560.456,477.663 556.341,473.641 553.373,468.836C550.404,473.641 546.29,477.663 541.412,480.521ZM423.995,480.521L447.917,480.521C443.039,477.663 438.924,473.641 435.956,468.836C432.988,473.641 428.873,477.663 423.995,480.521ZM482.704,480.521L506.625,480.521C501.747,477.663 497.633,473.641 494.664,468.836C491.696,473.641 487.582,477.663 482.704,480.521Z" style="fill:rgb(190,80,30);"/>
                </g>
                <g transform="matrix(1,0,0,1,0,91.3333)">
                    <g transform="matrix(1.02632,0,0,1.02632,-10.8522,-7.88213)">
                        <rect x="412.383" y="299.521" width="46.667" height="6.333" style="fill:rgb(190,80,30);"/>
                    </g>
                    <g>
                        <g transform="matrix(1.41203,0,0,1.02632,-103.914,-7.88213)">
                            <rect x="412.383" y="299.521" width="46.667" height="6.333" style="fill:rgb(190,80,30);"/>
                        </g>
                        <g transform="matrix(1.17857,0,0,1.02632,-2.19244,-15.8821)">
                            <rect x="412.383" y="299.521" width="46.667" height="6.333" style="fill:rgb(190,80,30);"/>
                        </g>
                    </g>
                </g>
            </g>
        </g>
    </g>
</svg>
