<?xml version="1.0" encoding="UTF-8" standalone="no"?>
<!DOCTYPE svg PUBLIC "-//W3C//DTD SVG 1.1//EN" "http://www.w3.org/Graphics/SVG/1.1/DTD/svg11.dtd">
<svg width="100%" height="100%" viewBox="0 0 1654 985" version="1.1" xmlns="http://www.w3.org/2000/svg" xmlns:xlink="http://www.w3.org/1999/xlink" xml:space="preserve" xmlns:serif="http://www.serif.com/" style="fill-rule:evenodd;clip-rule:evenodd;stroke-linecap:square;stroke-miterlimit:2;">
    <g transform="matrix(1,0,0,1,-111.915,-67.6576)">
        <g transform="matrix(4.17697,0,0,4.17697,-5925.29,-8224.77)">
            <g transform="matrix(4.2001,0,0,4.2001,1118.31,1985.32)">
                <path d="M145.728,27.235L145.471,27.235L145.471,23.19L152.423,16.239L171.914,16.239L171.914,16.497L152.529,16.497L145.728,23.297L145.728,27.235Z" style="fill:rgb(235,160,0);fill-rule:nonzero;stroke:rgb(235,160,0);stroke-width:0.17px;"/>
            </g>
            <g transform="matrix(4.2001,0,0,4.2001,1118.31,1985.32)">
                <path d="M150.116,17.212L149.933,17.03L151.757,15.207L151.848,15.169L154.426,15.169L154.426,15.427L151.901,15.427L150.116,17.212Z" style="fill:rgb(235,160,0);fill-rule:nonzero;stroke:rgb(235,160,0);stroke-width:0.17px;"/>
            </g>
        </g>
        <g transform="matrix(4.17697,0,0,-4.17697,-6001.29,9432.04)">
            <g transform="matrix(4.2001,0,0,4.2001,1118.31,1985.32)">
                <path d="M145.728,27.235L145.471,27.235L145.471,23.19L152.423,16.239L175.762,16.239L175.762,16.497L152.529,16.497L145.728,23.297L145.728,27.235Z" style="fill:rgb(255,190,0);fill-rule:nonzero;stroke:rgb(255,190,0);stroke-width:0.17px;"/>
            </g>
            <g transform="matrix(4.2001,0,0,4.2001,1118.31,1985.32)">
                <path d="M150.116,17.212L149.933,17.03L151.757,15.207L151.848,15.169L154.426,15.169L154.426,15.427L151.901,15.427L150.116,17.212Z" style="fill:rgb(255,190,0);fill-rule:nonzero;stroke:rgb(255,190,0);stroke-width:0.17px;"/>
            </g>
        </g>
        <g transform="matrix(4.17697,0,0,4.17697,-6181.29,-8457.77)">
            <g transform="matrix(4.2001,0,0,4.2001,1118.31,1985.32)">
                <path d="M145.728,27.235L145.471,27.235L145.471,23.19L152.423,16.239L177.428,16.239L177.428,16.497L152.529,16.497L145.728,23.297L145.728,27.235Z" style="fill:rgb(235,130,0);fill-rule:nonzero;stroke:rgb(235,130,0);stroke-width:0.17px;"/>
            </g>
            <g transform="matrix(4.2001,0,0,4.2001,1118.31,1985.32)">
                <path d="M150.116,17.212L149.933,17.03L151.757,15.207L151.848,15.169L154.426,15.169L154.426,15.427L151.901,15.427L150.116,17.212Z" style="fill:rgb(235,130,0);fill-rule:nonzero;stroke:rgb(235,130,0);stroke-width:0.17px;"/>
            </g>
        </g>
        <g transform="matrix(-4.17697,0,0,4.17697,7865.81,-8254.27)">
            <g transform="matrix(4.2001,0,0,4.2001,1118.31,1985.32)">
                <path d="M145.728,27.235L145.471,27.235L145.471,23.19L152.423,16.239C152.423,16.239 171.323,16.196 175.49,16.239C175.576,16.24 175.49,16.497 175.49,16.497L152.529,16.497L145.728,23.297L145.728,27.235Z" style="fill:rgb(210,105,10);fill-rule:nonzero;stroke:rgb(210,105,10);stroke-width:0.17px;"/>
            </g>
            <g transform="matrix(4.2001,0,0,4.2001,1118.31,1985.32)">
                <path d="M150.116,17.212L149.933,17.03L151.757,15.207L151.848,15.169L154.426,15.169L154.426,15.427L151.901,15.427L150.116,17.212Z" style="fill:rgb(210,105,10);fill-rule:nonzero;stroke:rgb(210,105,10);stroke-width:0.17px;"/>
            </g>
        </g>
        <g transform="matrix(-4.17697,0,0,-4.17697,8080.25,9580.37)">
            <g transform="matrix(4.2001,0,0,4.2001,1118.31,1990.11)">
                <path d="M145.728,27.235L145.471,27.235L145.471,23.19L152.423,16.239L175.933,16.239L175.933,16.497L152.529,16.497L145.728,23.297L145.728,27.235Z" style="fill:rgb(190,80,30);fill-rule:nonzero;stroke:rgb(190,80,30);stroke-width:0.17px;"/>
            </g>
            <g transform="matrix(4.2001,0,0,4.2001,1118.31,1990.11)">
                <path d="M150.116,17.212L149.933,17.03L151.757,15.207L151.848,15.169L154.426,15.169L154.426,15.427L151.901,15.427L150.116,17.212Z" style="fill:rgb(190,80,30);fill-rule:nonzero;stroke:rgb(190,80,30);stroke-width:0.17px;"/>
            </g>
        </g>
        <g transform="matrix(0.868595,0,0,0.868595,-190.47,-980.327)">
            <g transform="matrix(0.462514,0,0,0.462514,181.31,787.182)">
                <path d="M2471.69,1086.74L2471.69,1636.82C2373.76,1636.82 2283.3,1668.42 2209.85,1721.94L1886.46,1276.84C2064.46,1147.59 2251.78,1086.74 2471.69,1086.74Z" style="fill:rgb(235,130,0);fill-rule:nonzero;stroke:rgb(235,130,0);stroke-width:2.49px;stroke-linecap:butt;stroke-linejoin:round;"/>
            </g>
            <g transform="matrix(0.462514,0,0,0.462514,181.31,787.182)">
                <path d="M2209.85,1721.94C2134.63,1776.67 2077.2,1854.32 2047.94,1944.7L1524.77,1774.68C1592.74,1565.51 1708.53,1406.16 1886.46,1276.84L2209.85,1721.94Z" style="fill:rgb(210,105,10);fill-rule:nonzero;stroke:rgb(210,105,10);stroke-width:2.49px;stroke-linecap:butt;stroke-linejoin:round;"/>
            </g>
            <g transform="matrix(0.462514,0,0,0.462514,181.31,787.182)">
                <path d="M2026.17,2082.41C2026.17,2130.45 2033.78,2176.79 2047.87,2220.13L1524.77,2390.09C1456.8,2180.91 1456.8,1983.92 1524.77,1774.68L2047.94,1944.7C2033.78,1988.04 2026.17,2034.37 2026.17,2082.41Z" style="fill:rgb(210,105,10);fill-rule:nonzero;stroke:rgb(210,105,10);stroke-width:2.49px;stroke-linecap:butt;stroke-linejoin:round;"/>
            </g>
            <g transform="matrix(0.462514,0,0,0.462514,181.31,787.182)">
                <path d="M2209.79,2442.89L1886.46,2887.92C1708.53,2758.61 1592.74,2599.25 1524.77,2390.09L2047.87,2220.13C2077.2,2310.44 2134.56,2388.09 2209.79,2442.89Z" style="fill:rgb(190,80,30);fill-rule:nonzero;stroke:rgb(190,80,30);stroke-width:2.49px;stroke-linecap:butt;stroke-linejoin:round;"/>
            </g>
            <g transform="matrix(0.462514,0,0,0.462514,181.31,787.182)">
                <path d="M2471.69,2528.01L2471.69,3078.09C2251.78,3078.09 2064.46,3017.24 1886.46,2887.92L2209.79,2442.89C2283.24,2496.41 2373.76,2528.01 2471.69,2528.01Z" style="fill:rgb(190,80,30);fill-rule:nonzero;stroke:rgb(190,80,30);stroke-width:2.49px;stroke-linecap:butt;stroke-linejoin:round;"/>
            </g>
            <g transform="matrix(0.462514,0,0,0.462514,181.31,787.182)">
                <path d="M3057,2887.92C2879,3017.24 2691.68,3078.09 2471.69,3078.09L2471.69,2528.01C2569.63,2528.01 2660.08,2496.41 2733.6,2442.89L3057,2887.92Z" style="fill:rgb(190,80,30);fill-rule:nonzero;stroke:rgb(190,80,30);stroke-width:2.49px;stroke-linecap:butt;stroke-linejoin:round;"/>
            </g>
            <g transform="matrix(0.462514,0,0,0.462514,181.31,787.182)">
                <path d="M3418.69,2390.09C3350.72,2599.25 3234.92,2758.61 3057,2887.92L2733.6,2442.89C2808.82,2388.16 2866.26,2310.44 2895.58,2220.13L3418.69,2390.09Z" style="fill:rgb(255,190,0);fill-rule:nonzero;stroke:rgb(255,190,0);stroke-width:2.49px;stroke-linecap:butt;stroke-linejoin:round;"/>
            </g>
            <g transform="matrix(0.462514,0,0,0.462514,181.31,787.182)">
                <path d="M3418.69,2390.09L2895.58,2220.13C2909.67,2176.79 2917.29,2130.45 2917.29,2082.41C2917.29,2034.37 2909.67,1988.04 2895.51,1944.7L3418.69,1774.68C3486.65,1983.92 3486.65,2180.91 3418.69,2390.09Z" style="fill:rgb(235,160,0);fill-rule:nonzero;stroke:rgb(235,160,0);stroke-width:2.49px;stroke-linecap:butt;stroke-linejoin:round;"/>
            </g>
            <g transform="matrix(0.462514,0,0,0.462514,181.31,787.182)">
                <path d="M3418.69,1774.68L2895.51,1944.7C2866.26,1854.32 2808.82,1776.67 2733.6,1721.94L3057,1276.84C3234.92,1406.16 3350.72,1565.51 3418.69,1774.68Z" style="fill:rgb(235,160,0);fill-rule:nonzero;stroke:rgb(235,160,0);stroke-width:2.49px;stroke-linecap:butt;stroke-linejoin:round;"/>
            </g>
            <g transform="matrix(0.462514,0,0,0.462514,181.31,787.182)">
                <path d="M3057,1276.84L2733.6,1721.94C2660.08,1668.42 2569.63,1636.82 2471.69,1636.82L2471.69,1086.74C2691.68,1086.74 2879,1147.59 3057,1276.84Z" style="fill:rgb(235,130,0);fill-rule:nonzero;stroke:rgb(235,130,0);stroke-width:2.49px;stroke-linecap:butt;stroke-linejoin:round;"/>
            </g>
            <g transform="matrix(2.01147,0,0,2.01147,-385.122,-3205.43)">
                <g transform="matrix(41.2099,0,0,41.2099,653.531,2423.68)">
                    <path d="M0.274,-0.707C0.323,-0.707 0.365,-0.698 0.399,-0.68C0.433,-0.662 0.458,-0.638 0.476,-0.609C0.493,-0.579 0.502,-0.546 0.502,-0.51C0.502,-0.481 0.497,-0.452 0.487,-0.424C0.477,-0.396 0.46,-0.367 0.438,-0.336C0.415,-0.305 0.385,-0.271 0.348,-0.233C0.311,-0.195 0.266,-0.152 0.212,-0.103L0.518,-0.103L0.503,-0L0.06,-0L0.06,-0.097C0.108,-0.143 0.149,-0.183 0.184,-0.218C0.219,-0.254 0.248,-0.285 0.271,-0.312C0.295,-0.339 0.313,-0.363 0.327,-0.384C0.341,-0.406 0.351,-0.426 0.357,-0.445C0.363,-0.463 0.366,-0.482 0.366,-0.5C0.366,-0.532 0.357,-0.557 0.339,-0.576C0.321,-0.594 0.295,-0.603 0.263,-0.603C0.234,-0.603 0.209,-0.598 0.189,-0.586C0.169,-0.575 0.149,-0.557 0.13,-0.532L0.046,-0.595C0.073,-0.63 0.104,-0.658 0.141,-0.677C0.177,-0.697 0.221,-0.707 0.274,-0.707Z" style="fill:white;fill-rule:nonzero;"/>
                </g>
                <g transform="matrix(41.2099,0,0,41.2099,680.317,2423.68)">
                    <path d="M0.3,-0.707C0.38,-0.707 0.44,-0.675 0.481,-0.612C0.521,-0.549 0.542,-0.461 0.542,-0.347C0.542,-0.232 0.521,-0.144 0.481,-0.08C0.44,-0.017 0.38,0.015 0.3,0.015C0.22,0.015 0.16,-0.017 0.119,-0.08C0.079,-0.144 0.058,-0.232 0.058,-0.347C0.058,-0.461 0.079,-0.549 0.119,-0.612C0.16,-0.675 0.22,-0.707 0.3,-0.707ZM0.3,-0.609C0.262,-0.609 0.234,-0.588 0.215,-0.548C0.195,-0.508 0.186,-0.441 0.186,-0.347C0.186,-0.295 0.188,-0.252 0.192,-0.218C0.196,-0.184 0.202,-0.157 0.211,-0.137C0.22,-0.117 0.232,-0.103 0.246,-0.095C0.261,-0.087 0.279,-0.083 0.3,-0.083C0.325,-0.083 0.346,-0.091 0.363,-0.109C0.38,-0.126 0.393,-0.154 0.401,-0.193C0.409,-0.232 0.414,-0.283 0.414,-0.347C0.414,-0.415 0.41,-0.468 0.403,-0.506C0.396,-0.544 0.384,-0.571 0.367,-0.586C0.351,-0.601 0.328,-0.609 0.3,-0.609ZM0.387,-0.586L0.421,-0.504L0.224,-0.1L0.183,-0.167L0.387,-0.586Z" style="fill:white;fill-rule:nonzero;"/>
                </g>
                <g transform="matrix(41.2099,0,0,41.2099,707.104,2423.68)">
                    <path d="M0.453,-0.713L0.527,-0.678L0.139,0.026L0.066,-0.009L0.453,-0.713ZM0.447,-0.239C0.43,-0.239 0.417,-0.231 0.409,-0.217C0.401,-0.202 0.397,-0.18 0.397,-0.152C0.397,-0.125 0.401,-0.104 0.409,-0.088C0.418,-0.073 0.43,-0.065 0.447,-0.065C0.465,-0.065 0.478,-0.072 0.486,-0.087C0.494,-0.102 0.498,-0.123 0.498,-0.152C0.498,-0.182 0.494,-0.204 0.486,-0.218C0.478,-0.232 0.465,-0.239 0.447,-0.239ZM0.153,-0.635C0.136,-0.635 0.123,-0.628 0.115,-0.613C0.107,-0.598 0.103,-0.577 0.103,-0.549C0.103,-0.522 0.107,-0.501 0.115,-0.485C0.124,-0.469 0.136,-0.462 0.153,-0.462C0.171,-0.462 0.184,-0.469 0.192,-0.484C0.2,-0.498 0.204,-0.52 0.204,-0.549C0.204,-0.579 0.2,-0.6 0.192,-0.614C0.184,-0.628 0.171,-0.635 0.153,-0.635ZM0.153,-0.707C0.184,-0.707 0.209,-0.7 0.231,-0.686C0.252,-0.673 0.268,-0.654 0.28,-0.63C0.291,-0.606 0.297,-0.579 0.297,-0.549C0.297,-0.518 0.291,-0.491 0.28,-0.467C0.268,-0.443 0.252,-0.425 0.231,-0.411C0.209,-0.397 0.184,-0.391 0.153,-0.391C0.123,-0.391 0.097,-0.397 0.075,-0.411C0.054,-0.425 0.037,-0.443 0.026,-0.467C0.014,-0.491 0.009,-0.518 0.009,-0.549C0.009,-0.578 0.014,-0.605 0.026,-0.629C0.037,-0.653 0.054,-0.672 0.075,-0.686C0.097,-0.7 0.123,-0.707 0.153,-0.707ZM0.447,-0.31C0.478,-0.31 0.503,-0.303 0.525,-0.29C0.546,-0.276 0.562,-0.257 0.574,-0.234C0.585,-0.21 0.591,-0.183 0.591,-0.152C0.591,-0.122 0.585,-0.095 0.574,-0.071C0.562,-0.047 0.546,-0.028 0.525,-0.014C0.503,-0.001 0.478,0.006 0.447,0.006C0.417,0.006 0.391,-0.001 0.369,-0.014C0.348,-0.028 0.331,-0.047 0.32,-0.071C0.308,-0.095 0.303,-0.122 0.303,-0.152C0.303,-0.182 0.308,-0.209 0.32,-0.233C0.331,-0.256 0.348,-0.275 0.369,-0.289C0.391,-0.303 0.417,-0.31 0.447,-0.31Z" style="fill:white;fill-rule:nonzero;"/>
                </g>
                <g transform="matrix(41.2099,0,0,41.2099,731.83,2423.68)">
                </g>
            </g>
            <g transform="matrix(2.01147,0,0,2.01147,-70.3322,-3423.88)">
                <g transform="matrix(41.2099,0,0,41.2099,653.531,2423.68)">
                    <path d="M0.274,-0.707C0.323,-0.707 0.365,-0.698 0.399,-0.68C0.433,-0.662 0.458,-0.638 0.476,-0.609C0.493,-0.579 0.502,-0.546 0.502,-0.51C0.502,-0.481 0.497,-0.452 0.487,-0.424C0.477,-0.396 0.46,-0.367 0.438,-0.336C0.415,-0.305 0.385,-0.271 0.348,-0.233C0.311,-0.195 0.266,-0.152 0.212,-0.103L0.518,-0.103L0.503,-0L0.06,-0L0.06,-0.097C0.108,-0.143 0.149,-0.183 0.184,-0.218C0.219,-0.254 0.248,-0.285 0.271,-0.312C0.295,-0.339 0.313,-0.363 0.327,-0.384C0.341,-0.406 0.351,-0.426 0.357,-0.445C0.363,-0.463 0.366,-0.482 0.366,-0.5C0.366,-0.532 0.357,-0.557 0.339,-0.576C0.321,-0.594 0.295,-0.603 0.263,-0.603C0.234,-0.603 0.209,-0.598 0.189,-0.586C0.169,-0.575 0.149,-0.557 0.13,-0.532L0.046,-0.595C0.073,-0.63 0.104,-0.658 0.141,-0.677C0.177,-0.697 0.221,-0.707 0.274,-0.707Z" style="fill:white;fill-rule:nonzero;"/>
                </g>
                <g transform="matrix(41.2099,0,0,41.2099,680.317,2423.68)">
                    <path d="M0.3,-0.707C0.38,-0.707 0.44,-0.675 0.481,-0.612C0.521,-0.549 0.542,-0.461 0.542,-0.347C0.542,-0.232 0.521,-0.144 0.481,-0.08C0.44,-0.017 0.38,0.015 0.3,0.015C0.22,0.015 0.16,-0.017 0.119,-0.08C0.079,-0.144 0.058,-0.232 0.058,-0.347C0.058,-0.461 0.079,-0.549 0.119,-0.612C0.16,-0.675 0.22,-0.707 0.3,-0.707ZM0.3,-0.609C0.262,-0.609 0.234,-0.588 0.215,-0.548C0.195,-0.508 0.186,-0.441 0.186,-0.347C0.186,-0.295 0.188,-0.252 0.192,-0.218C0.196,-0.184 0.202,-0.157 0.211,-0.137C0.22,-0.117 0.232,-0.103 0.246,-0.095C0.261,-0.087 0.279,-0.083 0.3,-0.083C0.325,-0.083 0.346,-0.091 0.363,-0.109C0.38,-0.126 0.393,-0.154 0.401,-0.193C0.409,-0.232 0.414,-0.283 0.414,-0.347C0.414,-0.415 0.41,-0.468 0.403,-0.506C0.396,-0.544 0.384,-0.571 0.367,-0.586C0.351,-0.601 0.328,-0.609 0.3,-0.609ZM0.387,-0.586L0.421,-0.504L0.224,-0.1L0.183,-0.167L0.387,-0.586Z" style="fill:white;fill-rule:nonzero;"/>
                </g>
                <g transform="matrix(41.2099,0,0,41.2099,707.104,2423.68)">
                    <path d="M0.453,-0.713L0.527,-0.678L0.139,0.026L0.066,-0.009L0.453,-0.713ZM0.447,-0.239C0.43,-0.239 0.417,-0.231 0.409,-0.217C0.401,-0.202 0.397,-0.18 0.397,-0.152C0.397,-0.125 0.401,-0.104 0.409,-0.088C0.418,-0.073 0.43,-0.065 0.447,-0.065C0.465,-0.065 0.478,-0.072 0.486,-0.087C0.494,-0.102 0.498,-0.123 0.498,-0.152C0.498,-0.182 0.494,-0.204 0.486,-0.218C0.478,-0.232 0.465,-0.239 0.447,-0.239ZM0.153,-0.635C0.136,-0.635 0.123,-0.628 0.115,-0.613C0.107,-0.598 0.103,-0.577 0.103,-0.549C0.103,-0.522 0.107,-0.501 0.115,-0.485C0.124,-0.469 0.136,-0.462 0.153,-0.462C0.171,-0.462 0.184,-0.469 0.192,-0.484C0.2,-0.498 0.204,-0.52 0.204,-0.549C0.204,-0.579 0.2,-0.6 0.192,-0.614C0.184,-0.628 0.171,-0.635 0.153,-0.635ZM0.153,-0.707C0.184,-0.707 0.209,-0.7 0.231,-0.686C0.252,-0.673 0.268,-0.654 0.28,-0.63C0.291,-0.606 0.297,-0.579 0.297,-0.549C0.297,-0.518 0.291,-0.491 0.28,-0.467C0.268,-0.443 0.252,-0.425 0.231,-0.411C0.209,-0.397 0.184,-0.391 0.153,-0.391C0.123,-0.391 0.097,-0.397 0.075,-0.411C0.054,-0.425 0.037,-0.443 0.026,-0.467C0.014,-0.491 0.009,-0.518 0.009,-0.549C0.009,-0.578 0.014,-0.605 0.026,-0.629C0.037,-0.653 0.054,-0.672 0.075,-0.686C0.097,-0.7 0.123,-0.707 0.153,-0.707ZM0.447,-0.31C0.478,-0.31 0.503,-0.303 0.525,-0.29C0.546,-0.276 0.562,-0.257 0.574,-0.234C0.585,-0.21 0.591,-0.183 0.591,-0.152C0.591,-0.122 0.585,-0.095 0.574,-0.071C0.562,-0.047 0.546,-0.028 0.525,-0.014C0.503,-0.001 0.478,0.006 0.447,0.006C0.417,0.006 0.391,-0.001 0.369,-0.014C0.348,-0.028 0.331,-0.047 0.32,-0.071C0.308,-0.095 0.303,-0.122 0.303,-0.152C0.303,-0.182 0.308,-0.209 0.32,-0.233C0.331,-0.256 0.348,-0.275 0.369,-0.289C0.391,-0.303 0.417,-0.31 0.447,-0.31Z" style="fill:white;fill-rule:nonzero;"/>
                </g>
                <g transform="matrix(41.2099,0,0,41.2099,731.83,2423.68)">
                </g>
            </g>
            <g transform="matrix(2.01147,0,0,2.01147,248.265,-3190.96)">
                <g transform="matrix(41.2099,0,0,41.2099,653.531,2423.68)">
                    <path d="M0.274,-0.707C0.323,-0.707 0.365,-0.698 0.399,-0.68C0.433,-0.662 0.458,-0.638 0.476,-0.609C0.493,-0.579 0.502,-0.546 0.502,-0.51C0.502,-0.481 0.497,-0.452 0.487,-0.424C0.477,-0.396 0.46,-0.367 0.438,-0.336C0.415,-0.305 0.385,-0.271 0.348,-0.233C0.311,-0.195 0.266,-0.152 0.212,-0.103L0.518,-0.103L0.503,-0L0.06,-0L0.06,-0.097C0.108,-0.143 0.149,-0.183 0.184,-0.218C0.219,-0.254 0.248,-0.285 0.271,-0.312C0.295,-0.339 0.313,-0.363 0.327,-0.384C0.341,-0.406 0.351,-0.426 0.357,-0.445C0.363,-0.463 0.366,-0.482 0.366,-0.5C0.366,-0.532 0.357,-0.557 0.339,-0.576C0.321,-0.594 0.295,-0.603 0.263,-0.603C0.234,-0.603 0.209,-0.598 0.189,-0.586C0.169,-0.575 0.149,-0.557 0.13,-0.532L0.046,-0.595C0.073,-0.63 0.104,-0.658 0.141,-0.677C0.177,-0.697 0.221,-0.707 0.274,-0.707Z" style="fill:white;fill-rule:nonzero;"/>
                </g>
                <g transform="matrix(41.2099,0,0,41.2099,680.317,2423.68)">
                    <path d="M0.3,-0.707C0.38,-0.707 0.44,-0.675 0.481,-0.612C0.521,-0.549 0.542,-0.461 0.542,-0.347C0.542,-0.232 0.521,-0.144 0.481,-0.08C0.44,-0.017 0.38,0.015 0.3,0.015C0.22,0.015 0.16,-0.017 0.119,-0.08C0.079,-0.144 0.058,-0.232 0.058,-0.347C0.058,-0.461 0.079,-0.549 0.119,-0.612C0.16,-0.675 0.22,-0.707 0.3,-0.707ZM0.3,-0.609C0.262,-0.609 0.234,-0.588 0.215,-0.548C0.195,-0.508 0.186,-0.441 0.186,-0.347C0.186,-0.295 0.188,-0.252 0.192,-0.218C0.196,-0.184 0.202,-0.157 0.211,-0.137C0.22,-0.117 0.232,-0.103 0.246,-0.095C0.261,-0.087 0.279,-0.083 0.3,-0.083C0.325,-0.083 0.346,-0.091 0.363,-0.109C0.38,-0.126 0.393,-0.154 0.401,-0.193C0.409,-0.232 0.414,-0.283 0.414,-0.347C0.414,-0.415 0.41,-0.468 0.403,-0.506C0.396,-0.544 0.384,-0.571 0.367,-0.586C0.351,-0.601 0.328,-0.609 0.3,-0.609ZM0.387,-0.586L0.421,-0.504L0.224,-0.1L0.183,-0.167L0.387,-0.586Z" style="fill:white;fill-rule:nonzero;"/>
                </g>
                <g transform="matrix(41.2099,0,0,41.2099,707.104,2423.68)">
                    <path d="M0.453,-0.713L0.527,-0.678L0.139,0.026L0.066,-0.009L0.453,-0.713ZM0.447,-0.239C0.43,-0.239 0.417,-0.231 0.409,-0.217C0.401,-0.202 0.397,-0.18 0.397,-0.152C0.397,-0.125 0.401,-0.104 0.409,-0.088C0.418,-0.073 0.43,-0.065 0.447,-0.065C0.465,-0.065 0.478,-0.072 0.486,-0.087C0.494,-0.102 0.498,-0.123 0.498,-0.152C0.498,-0.182 0.494,-0.204 0.486,-0.218C0.478,-0.232 0.465,-0.239 0.447,-0.239ZM0.153,-0.635C0.136,-0.635 0.123,-0.628 0.115,-0.613C0.107,-0.598 0.103,-0.577 0.103,-0.549C0.103,-0.522 0.107,-0.501 0.115,-0.485C0.124,-0.469 0.136,-0.462 0.153,-0.462C0.171,-0.462 0.184,-0.469 0.192,-0.484C0.2,-0.498 0.204,-0.52 0.204,-0.549C0.204,-0.579 0.2,-0.6 0.192,-0.614C0.184,-0.628 0.171,-0.635 0.153,-0.635ZM0.153,-0.707C0.184,-0.707 0.209,-0.7 0.231,-0.686C0.252,-0.673 0.268,-0.654 0.28,-0.63C0.291,-0.606 0.297,-0.579 0.297,-0.549C0.297,-0.518 0.291,-0.491 0.28,-0.467C0.268,-0.443 0.252,-0.425 0.231,-0.411C0.209,-0.397 0.184,-0.391 0.153,-0.391C0.123,-0.391 0.097,-0.397 0.075,-0.411C0.054,-0.425 0.037,-0.443 0.026,-0.467C0.014,-0.491 0.009,-0.518 0.009,-0.549C0.009,-0.578 0.014,-0.605 0.026,-0.629C0.037,-0.653 0.054,-0.672 0.075,-0.686C0.097,-0.7 0.123,-0.707 0.153,-0.707ZM0.447,-0.31C0.478,-0.31 0.503,-0.303 0.525,-0.29C0.546,-0.276 0.562,-0.257 0.574,-0.234C0.585,-0.21 0.591,-0.183 0.591,-0.152C0.591,-0.122 0.585,-0.095 0.574,-0.071C0.562,-0.047 0.546,-0.028 0.525,-0.014C0.503,-0.001 0.478,0.006 0.447,0.006C0.417,0.006 0.391,-0.001 0.369,-0.014C0.348,-0.028 0.331,-0.047 0.32,-0.071C0.308,-0.095 0.303,-0.122 0.303,-0.152C0.303,-0.182 0.308,-0.209 0.32,-0.233C0.331,-0.256 0.348,-0.275 0.369,-0.289C0.391,-0.303 0.417,-0.31 0.447,-0.31Z" style="fill:white;fill-rule:nonzero;"/>
                </g>
                <g transform="matrix(41.2099,0,0,41.2099,731.83,2423.68)">
                </g>
            </g>
            <g transform="matrix(2.01147,0,0,2.01147,-174.301,-2788.19)">
                <g transform="matrix(41.2099,0,0,41.2099,653.531,2423.68)">
                    <path d="M0.271,-0.707C0.318,-0.707 0.359,-0.699 0.393,-0.683C0.427,-0.667 0.453,-0.645 0.471,-0.619C0.489,-0.592 0.498,-0.563 0.498,-0.531C0.498,-0.502 0.492,-0.477 0.48,-0.455C0.468,-0.433 0.452,-0.414 0.431,-0.4C0.41,-0.385 0.386,-0.374 0.359,-0.367C0.389,-0.363 0.417,-0.355 0.441,-0.342C0.465,-0.329 0.484,-0.311 0.499,-0.287C0.513,-0.263 0.52,-0.233 0.52,-0.196C0.52,-0.157 0.51,-0.121 0.489,-0.089C0.468,-0.058 0.438,-0.032 0.399,-0.013C0.361,0.006 0.315,0.015 0.262,0.015C0.215,0.015 0.172,0.007 0.132,-0.01C0.092,-0.027 0.058,-0.052 0.03,-0.085L0.107,-0.155C0.127,-0.132 0.15,-0.115 0.175,-0.104C0.201,-0.093 0.227,-0.088 0.255,-0.088C0.294,-0.088 0.325,-0.098 0.349,-0.118C0.372,-0.138 0.384,-0.167 0.384,-0.203C0.384,-0.231 0.379,-0.253 0.369,-0.269C0.358,-0.286 0.344,-0.298 0.325,-0.305C0.306,-0.313 0.284,-0.316 0.258,-0.316L0.197,-0.316L0.212,-0.41L0.255,-0.41C0.276,-0.41 0.296,-0.414 0.313,-0.421C0.33,-0.429 0.344,-0.44 0.354,-0.455C0.364,-0.47 0.369,-0.489 0.369,-0.511C0.369,-0.542 0.359,-0.565 0.338,-0.582C0.317,-0.598 0.29,-0.607 0.258,-0.607C0.23,-0.607 0.204,-0.602 0.182,-0.591C0.16,-0.58 0.138,-0.565 0.117,-0.546L0.048,-0.618C0.079,-0.648 0.113,-0.67 0.15,-0.685C0.187,-0.699 0.228,-0.707 0.271,-0.707Z" style="fill:white;fill-rule:nonzero;"/>
                </g>
                <g transform="matrix(41.2099,0,0,41.2099,680.317,2423.68)">
                    <path d="M0.3,-0.707C0.38,-0.707 0.44,-0.675 0.481,-0.612C0.521,-0.549 0.542,-0.461 0.542,-0.347C0.542,-0.232 0.521,-0.144 0.481,-0.08C0.44,-0.017 0.38,0.015 0.3,0.015C0.22,0.015 0.16,-0.017 0.119,-0.08C0.079,-0.144 0.058,-0.232 0.058,-0.347C0.058,-0.461 0.079,-0.549 0.119,-0.612C0.16,-0.675 0.22,-0.707 0.3,-0.707ZM0.3,-0.609C0.262,-0.609 0.234,-0.588 0.215,-0.548C0.195,-0.508 0.186,-0.441 0.186,-0.347C0.186,-0.295 0.188,-0.252 0.192,-0.218C0.196,-0.184 0.202,-0.157 0.211,-0.137C0.22,-0.117 0.232,-0.103 0.246,-0.095C0.261,-0.087 0.279,-0.083 0.3,-0.083C0.325,-0.083 0.346,-0.091 0.363,-0.109C0.38,-0.126 0.393,-0.154 0.401,-0.193C0.409,-0.232 0.414,-0.283 0.414,-0.347C0.414,-0.415 0.41,-0.468 0.403,-0.506C0.396,-0.544 0.384,-0.571 0.367,-0.586C0.351,-0.601 0.328,-0.609 0.3,-0.609ZM0.387,-0.586L0.421,-0.504L0.224,-0.1L0.183,-0.167L0.387,-0.586Z" style="fill:white;fill-rule:nonzero;"/>
                </g>
                <g transform="matrix(41.2099,0,0,41.2099,707.104,2423.68)">
                    <path d="M0.453,-0.713L0.527,-0.678L0.139,0.026L0.066,-0.009L0.453,-0.713ZM0.447,-0.239C0.43,-0.239 0.417,-0.231 0.409,-0.217C0.401,-0.202 0.397,-0.18 0.397,-0.152C0.397,-0.125 0.401,-0.104 0.409,-0.088C0.418,-0.073 0.43,-0.065 0.447,-0.065C0.465,-0.065 0.478,-0.072 0.486,-0.087C0.494,-0.102 0.498,-0.123 0.498,-0.152C0.498,-0.182 0.494,-0.204 0.486,-0.218C0.478,-0.232 0.465,-0.239 0.447,-0.239ZM0.153,-0.635C0.136,-0.635 0.123,-0.628 0.115,-0.613C0.107,-0.598 0.103,-0.577 0.103,-0.549C0.103,-0.522 0.107,-0.501 0.115,-0.485C0.124,-0.469 0.136,-0.462 0.153,-0.462C0.171,-0.462 0.184,-0.469 0.192,-0.484C0.2,-0.498 0.204,-0.52 0.204,-0.549C0.204,-0.579 0.2,-0.6 0.192,-0.614C0.184,-0.628 0.171,-0.635 0.153,-0.635ZM0.153,-0.707C0.184,-0.707 0.209,-0.7 0.231,-0.686C0.252,-0.673 0.268,-0.654 0.28,-0.63C0.291,-0.606 0.297,-0.579 0.297,-0.549C0.297,-0.518 0.291,-0.491 0.28,-0.467C0.268,-0.443 0.252,-0.425 0.231,-0.411C0.209,-0.397 0.184,-0.391 0.153,-0.391C0.123,-0.391 0.097,-0.397 0.075,-0.411C0.054,-0.425 0.037,-0.443 0.026,-0.467C0.014,-0.491 0.009,-0.518 0.009,-0.549C0.009,-0.578 0.014,-0.605 0.026,-0.629C0.037,-0.653 0.054,-0.672 0.075,-0.686C0.097,-0.7 0.123,-0.707 0.153,-0.707ZM0.447,-0.31C0.478,-0.31 0.503,-0.303 0.525,-0.29C0.546,-0.276 0.562,-0.257 0.574,-0.234C0.585,-0.21 0.591,-0.183 0.591,-0.152C0.591,-0.122 0.585,-0.095 0.574,-0.071C0.562,-0.047 0.546,-0.028 0.525,-0.014C0.503,-0.001 0.478,0.006 0.447,0.006C0.417,0.006 0.391,-0.001 0.369,-0.014C0.348,-0.028 0.331,-0.047 0.32,-0.071C0.308,-0.095 0.303,-0.122 0.303,-0.152C0.303,-0.182 0.308,-0.209 0.32,-0.233C0.331,-0.256 0.348,-0.275 0.369,-0.289C0.391,-0.303 0.417,-0.31 0.447,-0.31Z" style="fill:white;fill-rule:nonzero;"/>
                </g>
                <g transform="matrix(41.2099,0,0,41.2099,731.83,2423.68)">
                </g>
            </g>
            <g transform="matrix(2.01147,0,0,2.01147,197.202,-2907.94)">
                <g transform="matrix(41.2099,0,0,41.2099,653.531,2423.68)">
                    <path d="M0.405,-0.691L0.405,-0.02L0.275,-0.02L0.275,-0.559L0.127,-0.467L0.071,-0.559L0.288,-0.691L0.405,-0.691ZM0.539,-0.102L0.539,-0L0.107,-0L0.107,-0.102L0.539,-0.102Z" style="fill:white;fill-rule:nonzero;"/>
                </g>
                <g transform="matrix(41.2099,0,0,41.2099,680.317,2423.68)">
                    <path d="M0.3,-0.707C0.38,-0.707 0.44,-0.675 0.481,-0.612C0.521,-0.549 0.542,-0.461 0.542,-0.347C0.542,-0.232 0.521,-0.144 0.481,-0.08C0.44,-0.017 0.38,0.015 0.3,0.015C0.22,0.015 0.16,-0.017 0.119,-0.08C0.079,-0.144 0.058,-0.232 0.058,-0.347C0.058,-0.461 0.079,-0.549 0.119,-0.612C0.16,-0.675 0.22,-0.707 0.3,-0.707ZM0.3,-0.609C0.262,-0.609 0.234,-0.588 0.215,-0.548C0.195,-0.508 0.186,-0.441 0.186,-0.347C0.186,-0.295 0.188,-0.252 0.192,-0.218C0.196,-0.184 0.202,-0.157 0.211,-0.137C0.22,-0.117 0.232,-0.103 0.246,-0.095C0.261,-0.087 0.279,-0.083 0.3,-0.083C0.325,-0.083 0.346,-0.091 0.363,-0.109C0.38,-0.126 0.393,-0.154 0.401,-0.193C0.409,-0.232 0.414,-0.283 0.414,-0.347C0.414,-0.415 0.41,-0.468 0.403,-0.506C0.396,-0.544 0.384,-0.571 0.367,-0.586C0.351,-0.601 0.328,-0.609 0.3,-0.609ZM0.387,-0.586L0.421,-0.504L0.224,-0.1L0.183,-0.167L0.387,-0.586Z" style="fill:white;fill-rule:nonzero;"/>
                </g>
                <g transform="matrix(41.2099,0,0,41.2099,707.104,2423.68)">
                    <path d="M0.453,-0.713L0.527,-0.678L0.139,0.026L0.066,-0.009L0.453,-0.713ZM0.447,-0.239C0.43,-0.239 0.417,-0.231 0.409,-0.217C0.401,-0.202 0.397,-0.18 0.397,-0.152C0.397,-0.125 0.401,-0.104 0.409,-0.088C0.418,-0.073 0.43,-0.065 0.447,-0.065C0.465,-0.065 0.478,-0.072 0.486,-0.087C0.494,-0.102 0.498,-0.123 0.498,-0.152C0.498,-0.182 0.494,-0.204 0.486,-0.218C0.478,-0.232 0.465,-0.239 0.447,-0.239ZM0.153,-0.635C0.136,-0.635 0.123,-0.628 0.115,-0.613C0.107,-0.598 0.103,-0.577 0.103,-0.549C0.103,-0.522 0.107,-0.501 0.115,-0.485C0.124,-0.469 0.136,-0.462 0.153,-0.462C0.171,-0.462 0.184,-0.469 0.192,-0.484C0.2,-0.498 0.204,-0.52 0.204,-0.549C0.204,-0.579 0.2,-0.6 0.192,-0.614C0.184,-0.628 0.171,-0.635 0.153,-0.635ZM0.153,-0.707C0.184,-0.707 0.209,-0.7 0.231,-0.686C0.252,-0.673 0.268,-0.654 0.28,-0.63C0.291,-0.606 0.297,-0.579 0.297,-0.549C0.297,-0.518 0.291,-0.491 0.28,-0.467C0.268,-0.443 0.252,-0.425 0.231,-0.411C0.209,-0.397 0.184,-0.391 0.153,-0.391C0.123,-0.391 0.097,-0.397 0.075,-0.411C0.054,-0.425 0.037,-0.443 0.026,-0.467C0.014,-0.491 0.009,-0.518 0.009,-0.549C0.009,-0.578 0.014,-0.605 0.026,-0.629C0.037,-0.653 0.054,-0.672 0.075,-0.686C0.097,-0.7 0.123,-0.707 0.153,-0.707ZM0.447,-0.31C0.478,-0.31 0.503,-0.303 0.525,-0.29C0.546,-0.276 0.562,-0.257 0.574,-0.234C0.585,-0.21 0.591,-0.183 0.591,-0.152C0.591,-0.122 0.585,-0.095 0.574,-0.071C0.562,-0.047 0.546,-0.028 0.525,-0.014C0.503,-0.001 0.478,0.006 0.447,0.006C0.417,0.006 0.391,-0.001 0.369,-0.014C0.348,-0.028 0.331,-0.047 0.32,-0.071C0.308,-0.095 0.303,-0.122 0.303,-0.152C0.303,-0.182 0.308,-0.209 0.32,-0.233C0.331,-0.256 0.348,-0.275 0.369,-0.289C0.391,-0.303 0.417,-0.31 0.447,-0.31Z" style="fill:white;fill-rule:nonzero;"/>
                </g>
                <g transform="matrix(41.2099,0,0,41.2099,731.83,2423.68)">
                </g>
            </g>
        </g>
        <g transform="matrix(1,0,0,1,-231,-335)">
            <g transform="matrix(48,0,0,48,558.7,1296.25)">
                <path d="M0.539,-0.691L0.578,-0L0.456,-0L0.443,-0.319C0.442,-0.345 0.441,-0.37 0.441,-0.393C0.441,-0.415 0.441,-0.437 0.441,-0.458C0.442,-0.478 0.442,-0.498 0.443,-0.517C0.444,-0.536 0.445,-0.555 0.446,-0.573L0.355,-0.12L0.244,-0.12L0.146,-0.573C0.147,-0.555 0.148,-0.537 0.15,-0.518C0.151,-0.498 0.151,-0.478 0.152,-0.457C0.152,-0.436 0.153,-0.414 0.153,-0.391C0.153,-0.367 0.152,-0.343 0.152,-0.317L0.142,-0L0.022,-0L0.061,-0.691L0.213,-0.691L0.302,-0.235L0.387,-0.691L0.539,-0.691Z" style="fill:white;fill-rule:nonzero;"/>
            </g>
            <g transform="matrix(48,0,0,48,592.3,1296.25)">
                <path d="M0.412,-0.159L0.184,-0.159L0.141,-0L0,-0L0.216,-0.691L0.384,-0.691L0.601,-0L0.455,-0L0.412,-0.159ZM0.209,-0.261L0.386,-0.261L0.298,-0.589L0.209,-0.261Z" style="fill:white;fill-rule:nonzero;"/>
            </g>
            <g transform="matrix(48,0,0,48,625.9,1296.25)">
                <path d="M0.553,-0.487C0.553,-0.454 0.546,-0.424 0.533,-0.399C0.52,-0.374 0.502,-0.353 0.48,-0.337C0.457,-0.32 0.432,-0.307 0.404,-0.297L0.593,-0L0.436,-0L0.273,-0.276L0.21,-0.276L0.21,-0L0.073,-0L0.073,-0.691L0.277,-0.691C0.368,-0.691 0.437,-0.675 0.483,-0.641C0.53,-0.607 0.553,-0.556 0.553,-0.487ZM0.411,-0.487C0.411,-0.524 0.4,-0.551 0.378,-0.568C0.357,-0.584 0.324,-0.593 0.281,-0.593L0.21,-0.593L0.21,-0.373L0.285,-0.373C0.325,-0.373 0.357,-0.382 0.378,-0.399C0.4,-0.417 0.411,-0.447 0.411,-0.487Z" style="fill:white;fill-rule:nonzero;"/>
            </g>
            <g transform="matrix(48,0,0,48,659.5,1296.25)">
                <path d="M0.212,-0L0.075,-0L0.075,-0.691L0.212,-0.691L0.212,-0ZM0.217,-0.369L0.435,-0.691L0.582,-0.691L0.36,-0.379L0.601,-0L0.44,-0L0.217,-0.369Z" style="fill:white;fill-rule:nonzero;"/>
            </g>
            <g transform="matrix(48,0,0,48,693.1,1296.25)">
                <path d="M0.241,-0.591L0.241,-0.401L0.487,-0.401L0.487,-0.301L0.241,-0.301L0.241,-0.101L0.539,-0.101L0.539,-0L0.104,-0L0.104,-0.691L0.536,-0.691L0.521,-0.591L0.241,-0.591Z" style="fill:white;fill-rule:nonzero;"/>
            </g>
            <g transform="matrix(48,0,0,48,726.7,1296.25)">
                <path d="M0.367,-0.584L0.367,-0L0.23,-0L0.23,-0.584L0.029,-0.584L0.029,-0.691L0.575,-0.691L0.561,-0.584L0.367,-0.584Z" style="fill:white;fill-rule:nonzero;"/>
            </g>
            <g transform="matrix(48,0,0,48,760.3,1296.25)">
                <path d="M0.515,-0.691L0.515,-0.589L0.369,-0.589L0.369,-0.103L0.515,-0.103L0.515,-0L0.085,-0L0.085,-0.103L0.231,-0.103L0.231,-0.589L0.085,-0.589L0.085,-0.691L0.515,-0.691Z" style="fill:white;fill-rule:nonzero;"/>
            </g>
            <g transform="matrix(48,0,0,48,793.9,1296.25)">
                <path d="M0.365,-0L0.162,-0.574C0.163,-0.562 0.165,-0.546 0.167,-0.526C0.17,-0.506 0.172,-0.483 0.174,-0.458C0.176,-0.432 0.178,-0.406 0.18,-0.377C0.181,-0.349 0.182,-0.32 0.182,-0.291L0.182,-0L0.063,-0L0.063,-0.691L0.237,-0.691L0.438,-0.118C0.436,-0.135 0.433,-0.158 0.43,-0.186C0.427,-0.214 0.424,-0.246 0.422,-0.282C0.419,-0.318 0.418,-0.357 0.418,-0.398L0.418,-0.691L0.537,-0.691L0.537,-0L0.365,-0Z" style="fill:white;fill-rule:nonzero;"/>
            </g>
            <g transform="matrix(48,0,0,48,827.5,1296.25)">
                <path d="M0.321,0.015C0.26,0.015 0.207,0.001 0.164,-0.026C0.121,-0.053 0.088,-0.094 0.065,-0.147C0.042,-0.201 0.031,-0.267 0.031,-0.347C0.031,-0.406 0.039,-0.458 0.055,-0.503C0.071,-0.548 0.094,-0.585 0.122,-0.615C0.151,-0.646 0.184,-0.668 0.221,-0.684C0.259,-0.699 0.299,-0.707 0.341,-0.707C0.389,-0.707 0.43,-0.699 0.463,-0.685C0.496,-0.67 0.526,-0.65 0.553,-0.625L0.479,-0.548C0.458,-0.567 0.437,-0.581 0.416,-0.59C0.395,-0.599 0.372,-0.604 0.346,-0.604C0.322,-0.604 0.3,-0.599 0.279,-0.59C0.258,-0.58 0.24,-0.565 0.224,-0.545C0.208,-0.525 0.195,-0.498 0.186,-0.466C0.177,-0.433 0.173,-0.393 0.173,-0.346C0.173,-0.284 0.178,-0.234 0.19,-0.196C0.201,-0.158 0.218,-0.131 0.24,-0.114C0.263,-0.097 0.291,-0.088 0.325,-0.088C0.344,-0.088 0.362,-0.091 0.379,-0.095C0.396,-0.1 0.412,-0.106 0.427,-0.114L0.427,-0.29L0.323,-0.29L0.309,-0.39L0.558,-0.39L0.558,-0.051C0.524,-0.032 0.489,-0.016 0.45,-0.003C0.412,0.009 0.369,0.015 0.321,0.015Z" style="fill:white;fill-rule:nonzero;"/>
            </g>
            <g transform="matrix(48,0,0,48,856.3,1296.25)">
            </g>
        </g>
        <g transform="matrix(1,0,0,1,-439,-990.333)">
            <g transform="matrix(48,0,0,48,558.7,1296.25)">
                <path d="M0.569,-0.346C0.569,-0.274 0.559,-0.211 0.539,-0.157C0.518,-0.102 0.488,-0.06 0.448,-0.03C0.409,0 0.359,0.015 0.3,0.015C0.241,0.015 0.192,0 0.152,-0.029C0.112,-0.059 0.082,-0.1 0.061,-0.154C0.041,-0.208 0.031,-0.272 0.031,-0.345C0.031,-0.417 0.041,-0.481 0.061,-0.535C0.082,-0.589 0.112,-0.631 0.152,-0.661C0.192,-0.692 0.241,-0.707 0.3,-0.707C0.359,-0.707 0.409,-0.692 0.448,-0.663C0.488,-0.633 0.518,-0.591 0.539,-0.537C0.559,-0.483 0.569,-0.419 0.569,-0.346ZM0.428,-0.346C0.428,-0.433 0.418,-0.498 0.398,-0.54C0.378,-0.583 0.346,-0.604 0.3,-0.604C0.254,-0.604 0.222,-0.582 0.202,-0.54C0.182,-0.498 0.172,-0.433 0.172,-0.345C0.172,-0.258 0.182,-0.193 0.202,-0.151C0.223,-0.109 0.255,-0.088 0.3,-0.088C0.346,-0.088 0.379,-0.11 0.399,-0.152C0.418,-0.194 0.428,-0.259 0.428,-0.346Z" style="fill:white;fill-rule:nonzero;"/>
            </g>
            <g transform="matrix(48,0,0,48,592.3,1296.25)">
                <path d="M0.427,-0.47C0.427,-0.499 0.422,-0.522 0.411,-0.54C0.4,-0.558 0.384,-0.571 0.364,-0.579C0.343,-0.587 0.318,-0.591 0.289,-0.591L0.218,-0.591L0.218,-0.341L0.294,-0.341C0.321,-0.341 0.344,-0.345 0.364,-0.354C0.384,-0.362 0.4,-0.376 0.411,-0.395C0.422,-0.414 0.427,-0.439 0.427,-0.47ZM0.57,-0.471C0.57,-0.417 0.558,-0.373 0.535,-0.339C0.512,-0.305 0.48,-0.28 0.44,-0.264C0.399,-0.247 0.351,-0.239 0.298,-0.239L0.218,-0.239L0.218,-0L0.081,-0L0.081,-0.691L0.284,-0.691C0.374,-0.691 0.444,-0.673 0.494,-0.637C0.545,-0.601 0.57,-0.545 0.57,-0.471Z" style="fill:white;fill-rule:nonzero;"/>
            </g>
            <g transform="matrix(48,0,0,48,625.9,1296.25)">
                <path d="M0.241,-0.591L0.241,-0.401L0.487,-0.401L0.487,-0.301L0.241,-0.301L0.241,-0.101L0.539,-0.101L0.539,-0L0.104,-0L0.104,-0.691L0.536,-0.691L0.521,-0.591L0.241,-0.591Z" style="fill:white;fill-rule:nonzero;"/>
            </g>
            <g transform="matrix(48,0,0,48,659.5,1296.25)">
                <path d="M0.553,-0.487C0.553,-0.454 0.546,-0.424 0.533,-0.399C0.52,-0.374 0.502,-0.353 0.48,-0.337C0.457,-0.32 0.432,-0.307 0.404,-0.297L0.593,-0L0.436,-0L0.273,-0.276L0.21,-0.276L0.21,-0L0.073,-0L0.073,-0.691L0.277,-0.691C0.368,-0.691 0.437,-0.675 0.483,-0.641C0.53,-0.607 0.553,-0.556 0.553,-0.487ZM0.411,-0.487C0.411,-0.524 0.4,-0.551 0.378,-0.568C0.357,-0.584 0.324,-0.593 0.281,-0.593L0.21,-0.593L0.21,-0.373L0.285,-0.373C0.325,-0.373 0.357,-0.382 0.378,-0.399C0.4,-0.417 0.411,-0.447 0.411,-0.487Z" style="fill:white;fill-rule:nonzero;"/>
            </g>
            <g transform="matrix(48,0,0,48,693.1,1296.25)">
                <path d="M0.412,-0.159L0.184,-0.159L0.141,-0L0,-0L0.216,-0.691L0.384,-0.691L0.601,-0L0.455,-0L0.412,-0.159ZM0.209,-0.261L0.386,-0.261L0.298,-0.589L0.209,-0.261Z" style="fill:white;fill-rule:nonzero;"/>
            </g>
            <g transform="matrix(48,0,0,48,726.7,1296.25)">
                <path d="M0.367,-0.584L0.367,-0L0.23,-0L0.23,-0.584L0.029,-0.584L0.029,-0.691L0.575,-0.691L0.561,-0.584L0.367,-0.584Z" style="fill:white;fill-rule:nonzero;"/>
            </g>
            <g transform="matrix(48,0,0,48,760.3,1296.25)">
                <path d="M0.515,-0.691L0.515,-0.589L0.369,-0.589L0.369,-0.103L0.515,-0.103L0.515,-0L0.085,-0L0.085,-0.103L0.231,-0.103L0.231,-0.589L0.085,-0.589L0.085,-0.691L0.515,-0.691Z" style="fill:white;fill-rule:nonzero;"/>
            </g>
            <g transform="matrix(48,0,0,48,793.9,1296.25)">
                <path d="M0.569,-0.346C0.569,-0.274 0.559,-0.211 0.539,-0.157C0.518,-0.102 0.488,-0.06 0.448,-0.03C0.409,0 0.359,0.015 0.3,0.015C0.241,0.015 0.192,0 0.152,-0.029C0.112,-0.059 0.082,-0.1 0.061,-0.154C0.041,-0.208 0.031,-0.272 0.031,-0.345C0.031,-0.417 0.041,-0.481 0.061,-0.535C0.082,-0.589 0.112,-0.631 0.152,-0.661C0.192,-0.692 0.241,-0.707 0.3,-0.707C0.359,-0.707 0.409,-0.692 0.448,-0.663C0.488,-0.633 0.518,-0.591 0.539,-0.537C0.559,-0.483 0.569,-0.419 0.569,-0.346ZM0.428,-0.346C0.428,-0.433 0.418,-0.498 0.398,-0.54C0.378,-0.583 0.346,-0.604 0.3,-0.604C0.254,-0.604 0.222,-0.582 0.202,-0.54C0.182,-0.498 0.172,-0.433 0.172,-0.345C0.172,-0.258 0.182,-0.193 0.202,-0.151C0.223,-0.109 0.255,-0.088 0.3,-0.088C0.346,-0.088 0.379,-0.11 0.399,-0.152C0.418,-0.194 0.428,-0.259 0.428,-0.346Z" style="fill:white;fill-rule:nonzero;"/>
            </g>
            <g transform="matrix(48,0,0,48,827.5,1296.25)">
                <path d="M0.365,-0L0.162,-0.574C0.163,-0.562 0.165,-0.546 0.167,-0.526C0.17,-0.506 0.172,-0.483 0.174,-0.458C0.176,-0.432 0.178,-0.406 0.18,-0.377C0.181,-0.349 0.182,-0.32 0.182,-0.291L0.182,-0L0.063,-0L0.063,-0.691L0.237,-0.691L0.438,-0.118C0.436,-0.135 0.433,-0.158 0.43,-0.186C0.427,-0.214 0.424,-0.246 0.422,-0.282C0.419,-0.318 0.418,-0.357 0.418,-0.398L0.418,-0.691L0.537,-0.691L0.537,-0L0.365,-0Z" style="fill:white;fill-rule:nonzero;"/>
            </g>
            <g transform="matrix(48,0,0,48,861.1,1296.25)">
                <path d="M0.557,-0.198C0.557,-0.157 0.546,-0.12 0.525,-0.088C0.503,-0.055 0.472,-0.03 0.432,-0.012C0.391,0.006 0.343,0.015 0.286,0.015C0.226,0.015 0.174,0.006 0.131,-0.012C0.088,-0.03 0.052,-0.053 0.023,-0.081L0.095,-0.161C0.12,-0.138 0.148,-0.121 0.179,-0.108C0.21,-0.096 0.245,-0.09 0.284,-0.09C0.308,-0.09 0.331,-0.093 0.35,-0.101C0.37,-0.109 0.386,-0.12 0.397,-0.135C0.409,-0.149 0.415,-0.168 0.415,-0.19C0.415,-0.208 0.411,-0.224 0.403,-0.238C0.395,-0.251 0.381,-0.262 0.361,-0.273C0.342,-0.283 0.315,-0.293 0.28,-0.304C0.229,-0.319 0.187,-0.336 0.154,-0.355C0.121,-0.374 0.097,-0.396 0.081,-0.422C0.065,-0.448 0.057,-0.479 0.057,-0.514C0.057,-0.554 0.068,-0.588 0.09,-0.617C0.111,-0.645 0.141,-0.668 0.179,-0.683C0.216,-0.699 0.258,-0.707 0.304,-0.707C0.356,-0.707 0.401,-0.699 0.44,-0.684C0.479,-0.67 0.513,-0.648 0.543,-0.621L0.475,-0.543C0.451,-0.564 0.425,-0.579 0.398,-0.589C0.37,-0.598 0.342,-0.603 0.314,-0.603C0.292,-0.603 0.272,-0.6 0.254,-0.594C0.237,-0.588 0.223,-0.579 0.213,-0.567C0.203,-0.556 0.198,-0.541 0.198,-0.523C0.198,-0.507 0.203,-0.493 0.212,-0.481C0.221,-0.47 0.237,-0.459 0.259,-0.449C0.281,-0.439 0.312,-0.428 0.351,-0.416C0.392,-0.404 0.428,-0.389 0.459,-0.372C0.49,-0.354 0.514,-0.332 0.531,-0.304C0.548,-0.277 0.557,-0.241 0.557,-0.198Z" style="fill:white;fill-rule:nonzero;"/>
            </g>
            <g transform="matrix(48,0,0,48,889.9,1296.25)">
            </g>
        </g>
        <g transform="matrix(1,0,0,1,829.667,-464)">
            <g transform="matrix(48,0,0,48,558.7,1296.25)">
                <path d="M0.365,-0L0.162,-0.574C0.163,-0.562 0.165,-0.546 0.167,-0.526C0.17,-0.506 0.172,-0.483 0.174,-0.458C0.176,-0.432 0.178,-0.406 0.18,-0.377C0.181,-0.349 0.182,-0.32 0.182,-0.291L0.182,-0L0.063,-0L0.063,-0.691L0.237,-0.691L0.438,-0.118C0.436,-0.135 0.433,-0.158 0.43,-0.186C0.427,-0.214 0.424,-0.246 0.422,-0.282C0.419,-0.318 0.418,-0.357 0.418,-0.398L0.418,-0.691L0.537,-0.691L0.537,-0L0.365,-0Z" style="fill:white;fill-rule:nonzero;"/>
            </g>
            <g transform="matrix(48,0,0,48,592.3,1296.25)">
                <path d="M0.256,-0.591L0.256,-0.387L0.508,-0.387L0.508,-0.286L0.256,-0.286L0.256,-0L0.119,-0L0.119,-0.691L0.557,-0.691L0.542,-0.591L0.256,-0.591Z" style="fill:white;fill-rule:nonzero;"/>
            </g>
            <g transform="matrix(48,0,0,48,625.9,1296.25)">
                <path d="M0.367,-0.584L0.367,-0L0.23,-0L0.23,-0.584L0.029,-0.584L0.029,-0.691L0.575,-0.691L0.561,-0.584L0.367,-0.584Z" style="fill:white;fill-rule:nonzero;"/>
            </g>
            <g transform="matrix(48,0,0,48,659.5,1296.25)">
            </g>
            <g transform="matrix(48,0,0,48,693.1,1296.25)">
                <path d="M0.4,-0L0.4,-0.304L0.2,-0.304L0.2,-0L0.063,-0L0.063,-0.691L0.2,-0.691L0.2,-0.417L0.4,-0.417L0.4,-0.691L0.537,-0.691L0.537,-0L0.4,-0Z" style="fill:white;fill-rule:nonzero;"/>
            </g>
            <g transform="matrix(48,0,0,48,726.7,1296.25)">
                <path d="M0.569,-0.346C0.569,-0.274 0.559,-0.211 0.539,-0.157C0.518,-0.102 0.488,-0.06 0.448,-0.03C0.409,0 0.359,0.015 0.3,0.015C0.241,0.015 0.192,0 0.152,-0.029C0.112,-0.059 0.082,-0.1 0.061,-0.154C0.041,-0.208 0.031,-0.272 0.031,-0.345C0.031,-0.417 0.041,-0.481 0.061,-0.535C0.082,-0.589 0.112,-0.631 0.152,-0.661C0.192,-0.692 0.241,-0.707 0.3,-0.707C0.359,-0.707 0.409,-0.692 0.448,-0.663C0.488,-0.633 0.518,-0.591 0.539,-0.537C0.559,-0.483 0.569,-0.419 0.569,-0.346ZM0.428,-0.346C0.428,-0.433 0.418,-0.498 0.398,-0.54C0.378,-0.583 0.346,-0.604 0.3,-0.604C0.254,-0.604 0.222,-0.582 0.202,-0.54C0.182,-0.498 0.172,-0.433 0.172,-0.345C0.172,-0.258 0.182,-0.193 0.202,-0.151C0.223,-0.109 0.255,-0.088 0.3,-0.088C0.346,-0.088 0.379,-0.11 0.399,-0.152C0.418,-0.194 0.428,-0.259 0.428,-0.346Z" style="fill:white;fill-rule:nonzero;"/>
            </g>
            <g transform="matrix(48,0,0,48,760.3,1296.25)">
                <path d="M0.108,-0L0.108,-0.691L0.245,-0.691L0.245,-0.111L0.55,-0.111L0.536,-0L0.108,-0Z" style="fill:white;fill-rule:nonzero;"/>
            </g>
            <g transform="matrix(48,0,0,48,793.9,1296.25)">
                <path d="M0.424,-0.349C0.424,-0.401 0.419,-0.442 0.41,-0.474C0.4,-0.505 0.387,-0.529 0.371,-0.546C0.355,-0.563 0.336,-0.574 0.316,-0.58C0.295,-0.586 0.273,-0.589 0.251,-0.589L0.2,-0.589L0.2,-0.101L0.251,-0.101C0.275,-0.101 0.297,-0.105 0.318,-0.112C0.339,-0.12 0.357,-0.133 0.373,-0.151C0.389,-0.169 0.401,-0.194 0.41,-0.226C0.419,-0.259 0.424,-0.3 0.424,-0.349ZM0.567,-0.349C0.567,-0.292 0.561,-0.244 0.549,-0.204C0.537,-0.163 0.52,-0.13 0.499,-0.103C0.477,-0.077 0.453,-0.056 0.425,-0.041C0.397,-0.026 0.367,-0.015 0.336,-0.009C0.304,-0.003 0.272,-0 0.24,-0L0.063,-0L0.063,-0.691L0.228,-0.691C0.271,-0.691 0.313,-0.687 0.353,-0.678C0.393,-0.669 0.43,-0.652 0.462,-0.628C0.494,-0.603 0.519,-0.569 0.538,-0.524C0.557,-0.479 0.567,-0.421 0.567,-0.349Z" style="fill:white;fill-rule:nonzero;"/>
            </g>
            <g transform="matrix(48,0,0,48,827.5,1296.25)">
                <path d="M0.241,-0.591L0.241,-0.401L0.487,-0.401L0.487,-0.301L0.241,-0.301L0.241,-0.101L0.539,-0.101L0.539,-0L0.104,-0L0.104,-0.691L0.536,-0.691L0.521,-0.591L0.241,-0.591Z" style="fill:white;fill-rule:nonzero;"/>
            </g>
            <g transform="matrix(48,0,0,48,861.1,1296.25)">
                <path d="M0.553,-0.487C0.553,-0.454 0.546,-0.424 0.533,-0.399C0.52,-0.374 0.502,-0.353 0.48,-0.337C0.457,-0.32 0.432,-0.307 0.404,-0.297L0.593,-0L0.436,-0L0.273,-0.276L0.21,-0.276L0.21,-0L0.073,-0L0.073,-0.691L0.277,-0.691C0.368,-0.691 0.437,-0.675 0.483,-0.641C0.53,-0.607 0.553,-0.556 0.553,-0.487ZM0.411,-0.487C0.411,-0.524 0.4,-0.551 0.378,-0.568C0.357,-0.584 0.324,-0.593 0.281,-0.593L0.21,-0.593L0.21,-0.373L0.285,-0.373C0.325,-0.373 0.357,-0.382 0.378,-0.399C0.4,-0.417 0.411,-0.447 0.411,-0.487Z" style="fill:white;fill-rule:nonzero;"/>
            </g>
            <g transform="matrix(48,0,0,48,894.7,1296.25)">
                <path d="M0.557,-0.198C0.557,-0.157 0.546,-0.12 0.525,-0.088C0.503,-0.055 0.472,-0.03 0.432,-0.012C0.391,0.006 0.343,0.015 0.286,0.015C0.226,0.015 0.174,0.006 0.131,-0.012C0.088,-0.03 0.052,-0.053 0.023,-0.081L0.095,-0.161C0.12,-0.138 0.148,-0.121 0.179,-0.108C0.21,-0.096 0.245,-0.09 0.284,-0.09C0.308,-0.09 0.331,-0.093 0.35,-0.101C0.37,-0.109 0.386,-0.12 0.397,-0.135C0.409,-0.149 0.415,-0.168 0.415,-0.19C0.415,-0.208 0.411,-0.224 0.403,-0.238C0.395,-0.251 0.381,-0.262 0.361,-0.273C0.342,-0.283 0.315,-0.293 0.28,-0.304C0.229,-0.319 0.187,-0.336 0.154,-0.355C0.121,-0.374 0.097,-0.396 0.081,-0.422C0.065,-0.448 0.057,-0.479 0.057,-0.514C0.057,-0.554 0.068,-0.588 0.09,-0.617C0.111,-0.645 0.141,-0.668 0.179,-0.683C0.216,-0.699 0.258,-0.707 0.304,-0.707C0.356,-0.707 0.401,-0.699 0.44,-0.684C0.479,-0.67 0.513,-0.648 0.543,-0.621L0.475,-0.543C0.451,-0.564 0.425,-0.579 0.398,-0.589C0.37,-0.598 0.342,-0.603 0.314,-0.603C0.292,-0.603 0.272,-0.6 0.254,-0.594C0.237,-0.588 0.223,-0.579 0.213,-0.567C0.203,-0.556 0.198,-0.541 0.198,-0.523C0.198,-0.507 0.203,-0.493 0.212,-0.481C0.221,-0.47 0.237,-0.459 0.259,-0.449C0.281,-0.439 0.312,-0.428 0.351,-0.416C0.392,-0.404 0.428,-0.389 0.459,-0.372C0.49,-0.354 0.514,-0.332 0.531,-0.304C0.548,-0.277 0.557,-0.241 0.557,-0.198Z" style="fill:white;fill-rule:nonzero;"/>
            </g>
            <g transform="matrix(48,0,0,48,923.5,1296.25)">
            </g>
        </g>
        <g transform="matrix(1,0,0,1,933.667,-961.667)">
            <g transform="matrix(48,0,0,48,558.7,1296.25)">
                <path d="M0.557,-0.198C0.557,-0.157 0.546,-0.12 0.525,-0.088C0.503,-0.055 0.472,-0.03 0.432,-0.012C0.391,0.006 0.343,0.015 0.286,0.015C0.226,0.015 0.174,0.006 0.131,-0.012C0.088,-0.03 0.052,-0.053 0.023,-0.081L0.095,-0.161C0.12,-0.138 0.148,-0.121 0.179,-0.108C0.21,-0.096 0.245,-0.09 0.284,-0.09C0.308,-0.09 0.331,-0.093 0.35,-0.101C0.37,-0.109 0.386,-0.12 0.397,-0.135C0.409,-0.149 0.415,-0.168 0.415,-0.19C0.415,-0.208 0.411,-0.224 0.403,-0.238C0.395,-0.251 0.381,-0.262 0.361,-0.273C0.342,-0.283 0.315,-0.293 0.28,-0.304C0.229,-0.319 0.187,-0.336 0.154,-0.355C0.121,-0.374 0.097,-0.396 0.081,-0.422C0.065,-0.448 0.057,-0.479 0.057,-0.514C0.057,-0.554 0.068,-0.588 0.09,-0.617C0.111,-0.645 0.141,-0.668 0.179,-0.683C0.216,-0.699 0.258,-0.707 0.304,-0.707C0.356,-0.707 0.401,-0.699 0.44,-0.684C0.479,-0.67 0.513,-0.648 0.543,-0.621L0.475,-0.543C0.451,-0.564 0.425,-0.579 0.398,-0.589C0.37,-0.598 0.342,-0.603 0.314,-0.603C0.292,-0.603 0.272,-0.6 0.254,-0.594C0.237,-0.588 0.223,-0.579 0.213,-0.567C0.203,-0.556 0.198,-0.541 0.198,-0.523C0.198,-0.507 0.203,-0.493 0.212,-0.481C0.221,-0.47 0.237,-0.459 0.259,-0.449C0.281,-0.439 0.312,-0.428 0.351,-0.416C0.392,-0.404 0.428,-0.389 0.459,-0.372C0.49,-0.354 0.514,-0.332 0.531,-0.304C0.548,-0.277 0.557,-0.241 0.557,-0.198Z" style="fill:white;fill-rule:nonzero;"/>
            </g>
            <g transform="matrix(48,0,0,48,592.3,1296.25)">
                <path d="M0.241,-0.591L0.241,-0.401L0.487,-0.401L0.487,-0.301L0.241,-0.301L0.241,-0.101L0.539,-0.101L0.539,-0L0.104,-0L0.104,-0.691L0.536,-0.691L0.521,-0.591L0.241,-0.591Z" style="fill:white;fill-rule:nonzero;"/>
            </g>
            <g transform="matrix(48,0,0,48,625.9,1296.25)">
                <path d="M0.358,-0.707C0.406,-0.707 0.447,-0.7 0.48,-0.688C0.513,-0.675 0.544,-0.657 0.572,-0.634L0.503,-0.551C0.483,-0.568 0.462,-0.581 0.438,-0.589C0.415,-0.598 0.39,-0.602 0.363,-0.602C0.331,-0.602 0.301,-0.594 0.275,-0.577C0.248,-0.56 0.226,-0.533 0.21,-0.495C0.194,-0.458 0.186,-0.408 0.186,-0.347C0.186,-0.287 0.194,-0.238 0.209,-0.201C0.225,-0.163 0.246,-0.136 0.273,-0.119C0.3,-0.102 0.33,-0.093 0.364,-0.093C0.4,-0.093 0.43,-0.099 0.454,-0.112C0.477,-0.124 0.499,-0.138 0.518,-0.154L0.582,-0.072C0.558,-0.048 0.527,-0.028 0.491,-0.011C0.454,0.007 0.41,0.015 0.358,0.015C0.298,0.015 0.244,0.001 0.197,-0.026C0.149,-0.054 0.112,-0.095 0.085,-0.148C0.058,-0.202 0.044,-0.268 0.044,-0.347C0.044,-0.424 0.058,-0.49 0.086,-0.543C0.114,-0.597 0.152,-0.637 0.199,-0.665C0.247,-0.693 0.3,-0.707 0.358,-0.707Z" style="fill:white;fill-rule:nonzero;"/>
            </g>
            <g transform="matrix(48,0,0,48,659.5,1296.25)">
                <path d="M0.547,-0.691L0.547,-0.229C0.547,-0.182 0.538,-0.14 0.519,-0.103C0.5,-0.067 0.472,-0.038 0.435,-0.017C0.398,0.005 0.353,0.015 0.3,0.015C0.246,0.015 0.2,0.005 0.164,-0.016C0.127,-0.036 0.099,-0.065 0.081,-0.102C0.062,-0.138 0.053,-0.181 0.053,-0.229L0.053,-0.691L0.19,-0.691L0.19,-0.267C0.19,-0.209 0.198,-0.164 0.214,-0.135C0.23,-0.105 0.258,-0.09 0.3,-0.09C0.341,-0.09 0.37,-0.105 0.386,-0.135C0.402,-0.164 0.41,-0.209 0.41,-0.267L0.41,-0.691L0.547,-0.691Z" style="fill:white;fill-rule:nonzero;"/>
            </g>
            <g transform="matrix(48,0,0,48,693.1,1296.25)">
                <path d="M0.553,-0.487C0.553,-0.454 0.546,-0.424 0.533,-0.399C0.52,-0.374 0.502,-0.353 0.48,-0.337C0.457,-0.32 0.432,-0.307 0.404,-0.297L0.593,-0L0.436,-0L0.273,-0.276L0.21,-0.276L0.21,-0L0.073,-0L0.073,-0.691L0.277,-0.691C0.368,-0.691 0.437,-0.675 0.483,-0.641C0.53,-0.607 0.553,-0.556 0.553,-0.487ZM0.411,-0.487C0.411,-0.524 0.4,-0.551 0.378,-0.568C0.357,-0.584 0.324,-0.593 0.281,-0.593L0.21,-0.593L0.21,-0.373L0.285,-0.373C0.325,-0.373 0.357,-0.382 0.378,-0.399C0.4,-0.417 0.411,-0.447 0.411,-0.487Z" style="fill:white;fill-rule:nonzero;"/>
            </g>
            <g transform="matrix(48,0,0,48,726.7,1296.25)">
                <path d="M0.515,-0.691L0.515,-0.589L0.369,-0.589L0.369,-0.103L0.515,-0.103L0.515,-0L0.085,-0L0.085,-0.103L0.231,-0.103L0.231,-0.589L0.085,-0.589L0.085,-0.691L0.515,-0.691Z" style="fill:white;fill-rule:nonzero;"/>
            </g>
            <g transform="matrix(48,0,0,48,760.3,1296.25)">
                <path d="M0.367,-0.584L0.367,-0L0.23,-0L0.23,-0.584L0.029,-0.584L0.029,-0.691L0.575,-0.691L0.561,-0.584L0.367,-0.584Z" style="fill:white;fill-rule:nonzero;"/>
            </g>
            <g transform="matrix(48,0,0,48,793.9,1296.25)">
                <path d="M0.369,-0.262L0.369,-0L0.231,-0L0.231,-0.261L0.003,-0.691L0.153,-0.691L0.303,-0.377L0.453,-0.691L0.597,-0.691L0.369,-0.262Z" style="fill:white;fill-rule:nonzero;"/>
            </g>
            <g transform="matrix(48,0,0,48,822.7,1296.25)">
            </g>
        </g>
        <g transform="matrix(1,0,0,1,675.667,-1194.67)">
            <g transform="matrix(48,0,0,48,558.7,1296.25)">
                <path d="M0.424,-0.349C0.424,-0.401 0.419,-0.442 0.41,-0.474C0.4,-0.505 0.387,-0.529 0.371,-0.546C0.355,-0.563 0.336,-0.574 0.316,-0.58C0.295,-0.586 0.273,-0.589 0.251,-0.589L0.2,-0.589L0.2,-0.101L0.251,-0.101C0.275,-0.101 0.297,-0.105 0.318,-0.112C0.339,-0.12 0.357,-0.133 0.373,-0.151C0.389,-0.169 0.401,-0.194 0.41,-0.226C0.419,-0.259 0.424,-0.3 0.424,-0.349ZM0.567,-0.349C0.567,-0.292 0.561,-0.244 0.549,-0.204C0.537,-0.163 0.52,-0.13 0.499,-0.103C0.477,-0.077 0.453,-0.056 0.425,-0.041C0.397,-0.026 0.367,-0.015 0.336,-0.009C0.304,-0.003 0.272,-0 0.24,-0L0.063,-0L0.063,-0.691L0.228,-0.691C0.271,-0.691 0.313,-0.687 0.353,-0.678C0.393,-0.669 0.43,-0.652 0.462,-0.628C0.494,-0.603 0.519,-0.569 0.538,-0.524C0.557,-0.479 0.567,-0.421 0.567,-0.349Z" style="fill:white;fill-rule:nonzero;"/>
            </g>
            <g transform="matrix(48,0,0,48,592.3,1296.25)">
                <path d="M0.241,-0.591L0.241,-0.401L0.487,-0.401L0.487,-0.301L0.241,-0.301L0.241,-0.101L0.539,-0.101L0.539,-0L0.104,-0L0.104,-0.691L0.536,-0.691L0.521,-0.591L0.241,-0.591Z" style="fill:white;fill-rule:nonzero;"/>
            </g>
            <g transform="matrix(48,0,0,48,625.9,1296.25)">
                <path d="M0.303,-0.118L0.453,-0.691L0.592,-0.691L0.382,-0L0.218,-0L0.008,-0.691L0.154,-0.691L0.303,-0.118Z" style="fill:white;fill-rule:nonzero;"/>
            </g>
            <g transform="matrix(48,0,0,48,659.5,1296.25)">
                <path d="M0.241,-0.591L0.241,-0.401L0.487,-0.401L0.487,-0.301L0.241,-0.301L0.241,-0.101L0.539,-0.101L0.539,-0L0.104,-0L0.104,-0.691L0.536,-0.691L0.521,-0.591L0.241,-0.591Z" style="fill:white;fill-rule:nonzero;"/>
            </g>
            <g transform="matrix(48,0,0,48,693.1,1296.25)">
                <path d="M0.108,-0L0.108,-0.691L0.245,-0.691L0.245,-0.111L0.55,-0.111L0.536,-0L0.108,-0Z" style="fill:white;fill-rule:nonzero;"/>
            </g>
            <g transform="matrix(48,0,0,48,726.7,1296.25)">
                <path d="M0.569,-0.346C0.569,-0.274 0.559,-0.211 0.539,-0.157C0.518,-0.102 0.488,-0.06 0.448,-0.03C0.409,0 0.359,0.015 0.3,0.015C0.241,0.015 0.192,0 0.152,-0.029C0.112,-0.059 0.082,-0.1 0.061,-0.154C0.041,-0.208 0.031,-0.272 0.031,-0.345C0.031,-0.417 0.041,-0.481 0.061,-0.535C0.082,-0.589 0.112,-0.631 0.152,-0.661C0.192,-0.692 0.241,-0.707 0.3,-0.707C0.359,-0.707 0.409,-0.692 0.448,-0.663C0.488,-0.633 0.518,-0.591 0.539,-0.537C0.559,-0.483 0.569,-0.419 0.569,-0.346ZM0.428,-0.346C0.428,-0.433 0.418,-0.498 0.398,-0.54C0.378,-0.583 0.346,-0.604 0.3,-0.604C0.254,-0.604 0.222,-0.582 0.202,-0.54C0.182,-0.498 0.172,-0.433 0.172,-0.345C0.172,-0.258 0.182,-0.193 0.202,-0.151C0.223,-0.109 0.255,-0.088 0.3,-0.088C0.346,-0.088 0.379,-0.11 0.399,-0.152C0.418,-0.194 0.428,-0.259 0.428,-0.346Z" style="fill:white;fill-rule:nonzero;"/>
            </g>
            <g transform="matrix(48,0,0,48,760.3,1296.25)">
                <path d="M0.427,-0.47C0.427,-0.499 0.422,-0.522 0.411,-0.54C0.4,-0.558 0.384,-0.571 0.364,-0.579C0.343,-0.587 0.318,-0.591 0.289,-0.591L0.218,-0.591L0.218,-0.341L0.294,-0.341C0.321,-0.341 0.344,-0.345 0.364,-0.354C0.384,-0.362 0.4,-0.376 0.411,-0.395C0.422,-0.414 0.427,-0.439 0.427,-0.47ZM0.57,-0.471C0.57,-0.417 0.558,-0.373 0.535,-0.339C0.512,-0.305 0.48,-0.28 0.44,-0.264C0.399,-0.247 0.351,-0.239 0.298,-0.239L0.218,-0.239L0.218,-0L0.081,-0L0.081,-0.691L0.284,-0.691C0.374,-0.691 0.444,-0.673 0.494,-0.637C0.545,-0.601 0.57,-0.545 0.57,-0.471Z" style="fill:white;fill-rule:nonzero;"/>
            </g>
            <g transform="matrix(48,0,0,48,793.9,1296.25)">
                <path d="M0.539,-0.691L0.578,-0L0.456,-0L0.443,-0.319C0.442,-0.345 0.441,-0.37 0.441,-0.393C0.441,-0.415 0.441,-0.437 0.441,-0.458C0.442,-0.478 0.442,-0.498 0.443,-0.517C0.444,-0.536 0.445,-0.555 0.446,-0.573L0.355,-0.12L0.244,-0.12L0.146,-0.573C0.147,-0.555 0.148,-0.537 0.15,-0.518C0.151,-0.498 0.151,-0.478 0.152,-0.457C0.152,-0.436 0.153,-0.414 0.153,-0.391C0.153,-0.367 0.152,-0.343 0.152,-0.317L0.142,-0L0.022,-0L0.061,-0.691L0.213,-0.691L0.302,-0.235L0.387,-0.691L0.539,-0.691Z" style="fill:white;fill-rule:nonzero;"/>
            </g>
            <g transform="matrix(48,0,0,48,827.5,1296.25)">
                <path d="M0.241,-0.591L0.241,-0.401L0.487,-0.401L0.487,-0.301L0.241,-0.301L0.241,-0.101L0.539,-0.101L0.539,-0L0.104,-0L0.104,-0.691L0.536,-0.691L0.521,-0.591L0.241,-0.591Z" style="fill:white;fill-rule:nonzero;"/>
            </g>
            <g transform="matrix(48,0,0,48,861.1,1296.25)">
                <path d="M0.365,-0L0.162,-0.574C0.163,-0.562 0.165,-0.546 0.167,-0.526C0.17,-0.506 0.172,-0.483 0.174,-0.458C0.176,-0.432 0.178,-0.406 0.18,-0.377C0.181,-0.349 0.182,-0.32 0.182,-0.291L0.182,-0L0.063,-0L0.063,-0.691L0.237,-0.691L0.438,-0.118C0.436,-0.135 0.433,-0.158 0.43,-0.186C0.427,-0.214 0.424,-0.246 0.422,-0.282C0.419,-0.318 0.418,-0.357 0.418,-0.398L0.418,-0.691L0.537,-0.691L0.537,-0L0.365,-0Z" style="fill:white;fill-rule:nonzero;"/>
            </g>
            <g transform="matrix(48,0,0,48,894.7,1296.25)">
                <path d="M0.367,-0.584L0.367,-0L0.23,-0L0.23,-0.584L0.029,-0.584L0.029,-0.691L0.575,-0.691L0.561,-0.584L0.367,-0.584Z" style="fill:white;fill-rule:nonzero;"/>
            </g>
            <g transform="matrix(48,0,0,48,923.5,1296.25)">
            </g>
        </g>
        <g transform="matrix(0.344652,0,0,0.344652,1175.99,650.731)">
            <g transform="matrix(58.0295,0,0,58.0295,838.833,1164.25)">
                <path d="M0.597,-0.689L0.496,-0L0.372,-0L0.298,-0.516L0.223,-0L0.097,-0L0.003,-0.689L0.101,-0.689L0.167,-0.103L0.245,-0.609L0.357,-0.609L0.431,-0.103L0.506,-0.689L0.597,-0.689Z" style="fill:white;fill-opacity:0.3;fill-rule:nonzero;"/>
            </g>
            <g transform="matrix(58.0295,0,0,58.0295,879.454,1164.25)">
                <path d="M0.501,-0.689L0.501,-0.611L0.35,-0.611L0.35,-0.078L0.501,-0.078L0.501,-0L0.099,-0L0.099,-0.078L0.25,-0.078L0.25,-0.611L0.099,-0.611L0.099,-0.689L0.501,-0.689Z" style="fill:white;fill-opacity:0.3;fill-rule:nonzero;"/>
            </g>
            <g transform="matrix(58.0295,0,0,58.0295,920.075,1164.25)">
                <path d="M0.129,-0L0.129,-0.689L0.228,-0.689L0.228,-0.086L0.54,-0.086L0.529,-0L0.129,-0Z" style="fill:white;fill-opacity:0.3;fill-rule:nonzero;"/>
            </g>
            <g transform="matrix(58.0295,0,0,58.0295,960.695,1164.25)">
                <path d="M0.129,-0L0.129,-0.689L0.228,-0.689L0.228,-0.086L0.54,-0.086L0.529,-0L0.129,-0Z" style="fill:white;fill-opacity:0.3;fill-rule:nonzero;"/>
            </g>
            <g transform="matrix(58.0295,0,0,58.0295,1001.32,1164.25)">
            </g>
            <g transform="matrix(58.0295,0,0,58.0295,1041.94,1164.25)">
                <path d="M0.428,-0.171L0.167,-0.171L0.115,-0L0.015,-0L0.237,-0.689L0.363,-0.689L0.585,-0L0.48,-0L0.428,-0.171ZM0.19,-0.251L0.405,-0.251L0.298,-0.609L0.19,-0.251Z" style="fill:white;fill-opacity:0.3;fill-rule:nonzero;"/>
            </g>
            <g transform="matrix(58.0295,0,0,58.0295,1082.56,1164.25)">
                <path d="M0.451,-0.348C0.451,-0.406 0.445,-0.452 0.433,-0.487C0.421,-0.522 0.405,-0.548 0.386,-0.566C0.366,-0.584 0.345,-0.595 0.321,-0.601C0.298,-0.607 0.274,-0.61 0.251,-0.61L0.178,-0.61L0.178,-0.077L0.252,-0.077C0.276,-0.077 0.3,-0.081 0.324,-0.089C0.347,-0.097 0.369,-0.11 0.388,-0.13C0.407,-0.15 0.422,-0.177 0.434,-0.212C0.445,-0.248 0.451,-0.293 0.451,-0.348ZM0.556,-0.348C0.556,-0.291 0.55,-0.242 0.538,-0.201C0.526,-0.161 0.509,-0.128 0.488,-0.101C0.467,-0.075 0.443,-0.054 0.416,-0.04C0.389,-0.025 0.36,-0.015 0.33,-0.009C0.3,-0.003 0.27,-0 0.241,-0L0.078,-0L0.078,-0.689L0.23,-0.689C0.271,-0.689 0.311,-0.685 0.349,-0.676C0.388,-0.667 0.423,-0.65 0.454,-0.626C0.485,-0.602 0.51,-0.567 0.529,-0.522C0.547,-0.478 0.556,-0.42 0.556,-0.348Z" style="fill:white;fill-opacity:0.3;fill-rule:nonzero;"/>
            </g>
            <g transform="matrix(58.0295,0,0,58.0295,1123.18,1164.25)">
                <path d="M0.501,-0.689L0.501,-0.232C0.501,-0.201 0.497,-0.172 0.489,-0.142C0.481,-0.113 0.467,-0.087 0.448,-0.064C0.43,-0.041 0.405,-0.022 0.374,-0.009C0.343,0.005 0.305,0.012 0.259,0.012C0.224,0.012 0.19,0.007 0.157,-0.004C0.125,-0.015 0.095,-0.031 0.067,-0.051L0.11,-0.115C0.138,-0.097 0.165,-0.085 0.189,-0.078C0.213,-0.072 0.236,-0.069 0.257,-0.069C0.303,-0.069 0.339,-0.083 0.364,-0.113C0.39,-0.142 0.403,-0.183 0.403,-0.236L0.403,-0.61L0.197,-0.61L0.197,-0.689L0.501,-0.689Z" style="fill:white;fill-opacity:0.3;fill-rule:nonzero;"/>
            </g>
            <g transform="matrix(58.0295,0,0,58.0295,1163.8,1164.25)">
                <path d="M0.532,-0.689L0.532,-0.225C0.532,-0.178 0.523,-0.137 0.504,-0.101C0.485,-0.066 0.459,-0.038 0.424,-0.018C0.389,0.002 0.347,0.012 0.299,0.012C0.25,0.012 0.209,0.002 0.174,-0.018C0.14,-0.038 0.113,-0.065 0.095,-0.101C0.077,-0.137 0.068,-0.178 0.068,-0.225L0.068,-0.689L0.166,-0.689L0.166,-0.232C0.166,-0.178 0.178,-0.138 0.2,-0.111C0.222,-0.084 0.255,-0.07 0.299,-0.07C0.343,-0.07 0.377,-0.084 0.399,-0.111C0.421,-0.138 0.433,-0.178 0.433,-0.232L0.433,-0.689L0.532,-0.689Z" style="fill:white;fill-opacity:0.3;fill-rule:nonzero;"/>
            </g>
            <g transform="matrix(58.0295,0,0,58.0295,1204.42,1164.25)">
                <path d="M0.542,-0.192C0.542,-0.153 0.531,-0.117 0.511,-0.086C0.491,-0.055 0.462,-0.031 0.424,-0.014C0.386,0.004 0.34,0.012 0.285,0.012C0.232,0.012 0.185,0.004 0.144,-0.012C0.103,-0.028 0.067,-0.05 0.038,-0.078L0.095,-0.141C0.119,-0.119 0.147,-0.101 0.178,-0.088C0.209,-0.075 0.245,-0.069 0.286,-0.069C0.313,-0.069 0.338,-0.073 0.361,-0.082C0.384,-0.091 0.403,-0.104 0.417,-0.122C0.431,-0.14 0.439,-0.162 0.439,-0.189C0.439,-0.211 0.434,-0.229 0.426,-0.244C0.417,-0.259 0.402,-0.272 0.381,-0.284C0.36,-0.296 0.33,-0.307 0.292,-0.319C0.245,-0.332 0.205,-0.348 0.172,-0.365C0.139,-0.383 0.113,-0.404 0.096,-0.429C0.078,-0.454 0.069,-0.484 0.069,-0.52C0.069,-0.556 0.079,-0.588 0.099,-0.615C0.119,-0.642 0.146,-0.663 0.18,-0.679C0.215,-0.694 0.254,-0.701 0.298,-0.701C0.347,-0.701 0.389,-0.695 0.425,-0.681C0.462,-0.667 0.494,-0.647 0.523,-0.621L0.468,-0.559C0.443,-0.581 0.417,-0.596 0.389,-0.606C0.361,-0.616 0.332,-0.621 0.303,-0.621C0.279,-0.621 0.257,-0.617 0.237,-0.61C0.217,-0.603 0.201,-0.593 0.189,-0.579C0.177,-0.564 0.171,-0.547 0.171,-0.525C0.171,-0.506 0.176,-0.49 0.186,-0.476C0.197,-0.463 0.214,-0.45 0.239,-0.439C0.263,-0.427 0.297,-0.415 0.339,-0.402C0.376,-0.392 0.41,-0.378 0.441,-0.362C0.472,-0.347 0.496,-0.325 0.514,-0.298C0.532,-0.272 0.542,-0.236 0.542,-0.192Z" style="fill:white;fill-opacity:0.3;fill-rule:nonzero;"/>
            </g>
            <g transform="matrix(58.0295,0,0,58.0295,1245.04,1164.25)">
                <path d="M0.348,-0.607L0.348,-0L0.249,-0L0.249,-0.607L0.037,-0.607L0.037,-0.689L0.563,-0.689L0.553,-0.607L0.348,-0.607Z" style="fill:white;fill-opacity:0.3;fill-rule:nonzero;"/>
            </g>
            <g transform="matrix(58.0295,0,0,58.0295,1285.66,1164.25)">
            </g>
            <g transform="matrix(58.0295,0,0,58.0295,1326.28,1164.25)">
                <path d="M0.428,-0.171L0.167,-0.171L0.115,-0L0.015,-0L0.237,-0.689L0.363,-0.689L0.585,-0L0.48,-0L0.428,-0.171ZM0.19,-0.251L0.405,-0.251L0.298,-0.609L0.19,-0.251Z" style="fill:white;fill-opacity:0.3;fill-rule:nonzero;"/>
            </g>
            <g transform="matrix(58.0295,0,0,58.0295,1366.9,1164.25)">
                <path d="M0.542,-0.192C0.542,-0.153 0.531,-0.117 0.511,-0.086C0.491,-0.055 0.462,-0.031 0.424,-0.014C0.386,0.004 0.34,0.012 0.285,0.012C0.232,0.012 0.185,0.004 0.144,-0.012C0.103,-0.028 0.067,-0.05 0.038,-0.078L0.095,-0.141C0.119,-0.119 0.147,-0.101 0.178,-0.088C0.209,-0.075 0.245,-0.069 0.286,-0.069C0.313,-0.069 0.338,-0.073 0.361,-0.082C0.384,-0.091 0.403,-0.104 0.417,-0.122C0.431,-0.14 0.439,-0.162 0.439,-0.189C0.439,-0.211 0.434,-0.229 0.426,-0.244C0.417,-0.259 0.402,-0.272 0.381,-0.284C0.36,-0.296 0.33,-0.307 0.292,-0.319C0.245,-0.332 0.205,-0.348 0.172,-0.365C0.139,-0.383 0.113,-0.404 0.096,-0.429C0.078,-0.454 0.069,-0.484 0.069,-0.52C0.069,-0.556 0.079,-0.588 0.099,-0.615C0.119,-0.642 0.146,-0.663 0.18,-0.679C0.215,-0.694 0.254,-0.701 0.298,-0.701C0.347,-0.701 0.389,-0.695 0.425,-0.681C0.462,-0.667 0.494,-0.647 0.523,-0.621L0.468,-0.559C0.443,-0.581 0.417,-0.596 0.389,-0.606C0.361,-0.616 0.332,-0.621 0.303,-0.621C0.279,-0.621 0.257,-0.617 0.237,-0.61C0.217,-0.603 0.201,-0.593 0.189,-0.579C0.177,-0.564 0.171,-0.547 0.171,-0.525C0.171,-0.506 0.176,-0.49 0.186,-0.476C0.197,-0.463 0.214,-0.45 0.239,-0.439C0.263,-0.427 0.297,-0.415 0.339,-0.402C0.376,-0.392 0.41,-0.378 0.441,-0.362C0.472,-0.347 0.496,-0.325 0.514,-0.298C0.532,-0.272 0.542,-0.236 0.542,-0.192Z" style="fill:white;fill-opacity:0.3;fill-rule:nonzero;"/>
            </g>
            <g transform="matrix(58.0295,0,0,58.0295,1407.52,1164.25)">
            </g>
            <g transform="matrix(58.0295,0,0,58.0295,1448.14,1164.25)">
                <path d="M0.387,-0L0.155,-0.598C0.155,-0.589 0.157,-0.575 0.158,-0.557C0.159,-0.538 0.161,-0.517 0.163,-0.492C0.164,-0.468 0.166,-0.442 0.167,-0.414C0.168,-0.386 0.169,-0.359 0.169,-0.332L0.169,-0L0.078,-0L0.078,-0.689L0.21,-0.689L0.445,-0.09C0.444,-0.101 0.443,-0.12 0.44,-0.147C0.438,-0.173 0.436,-0.205 0.434,-0.241C0.432,-0.278 0.431,-0.316 0.431,-0.357L0.431,-0.689L0.522,-0.689L0.522,-0L0.387,-0Z" style="fill:white;fill-opacity:0.3;fill-rule:nonzero;"/>
            </g>
            <g transform="matrix(58.0295,0,0,58.0295,1488.76,1164.25)">
                <path d="M0.22,-0.611L0.22,-0.389L0.472,-0.389L0.472,-0.311L0.22,-0.311L0.22,-0.077L0.529,-0.077L0.529,-0L0.12,-0L0.12,-0.689L0.521,-0.689L0.51,-0.611L0.22,-0.611Z" style="fill:white;fill-opacity:0.3;fill-rule:nonzero;"/>
            </g>
            <g transform="matrix(58.0295,0,0,58.0295,1529.38,1164.25)">
                <path d="M0.22,-0.611L0.22,-0.389L0.472,-0.389L0.472,-0.311L0.22,-0.311L0.22,-0.077L0.529,-0.077L0.529,-0L0.12,-0L0.12,-0.689L0.521,-0.689L0.51,-0.611L0.22,-0.611Z" style="fill:white;fill-opacity:0.3;fill-rule:nonzero;"/>
            </g>
            <g transform="matrix(58.0295,0,0,58.0295,1570.01,1164.25)">
                <path d="M0.451,-0.348C0.451,-0.406 0.445,-0.452 0.433,-0.487C0.421,-0.522 0.405,-0.548 0.386,-0.566C0.366,-0.584 0.345,-0.595 0.321,-0.601C0.298,-0.607 0.274,-0.61 0.251,-0.61L0.178,-0.61L0.178,-0.077L0.252,-0.077C0.276,-0.077 0.3,-0.081 0.324,-0.089C0.347,-0.097 0.369,-0.11 0.388,-0.13C0.407,-0.15 0.422,-0.177 0.434,-0.212C0.445,-0.248 0.451,-0.293 0.451,-0.348ZM0.556,-0.348C0.556,-0.291 0.55,-0.242 0.538,-0.201C0.526,-0.161 0.509,-0.128 0.488,-0.101C0.467,-0.075 0.443,-0.054 0.416,-0.04C0.389,-0.025 0.36,-0.015 0.33,-0.009C0.3,-0.003 0.27,-0 0.241,-0L0.078,-0L0.078,-0.689L0.23,-0.689C0.271,-0.689 0.311,-0.685 0.349,-0.676C0.388,-0.667 0.423,-0.65 0.454,-0.626C0.485,-0.602 0.51,-0.567 0.529,-0.522C0.547,-0.478 0.556,-0.42 0.556,-0.348Z" style="fill:white;fill-opacity:0.3;fill-rule:nonzero;"/>
            </g>
            <g transform="matrix(58.0295,0,0,58.0295,1610.63,1164.25)">
                <path d="M0.22,-0.611L0.22,-0.389L0.472,-0.389L0.472,-0.311L0.22,-0.311L0.22,-0.077L0.529,-0.077L0.529,-0L0.12,-0L0.12,-0.689L0.521,-0.689L0.51,-0.611L0.22,-0.611Z" style="fill:white;fill-opacity:0.3;fill-rule:nonzero;"/>
            </g>
            <g transform="matrix(58.0295,0,0,58.0295,1651.25,1164.25)">
                <path d="M0.451,-0.348C0.451,-0.406 0.445,-0.452 0.433,-0.487C0.421,-0.522 0.405,-0.548 0.386,-0.566C0.366,-0.584 0.345,-0.595 0.321,-0.601C0.298,-0.607 0.274,-0.61 0.251,-0.61L0.178,-0.61L0.178,-0.077L0.252,-0.077C0.276,-0.077 0.3,-0.081 0.324,-0.089C0.347,-0.097 0.369,-0.11 0.388,-0.13C0.407,-0.15 0.422,-0.177 0.434,-0.212C0.445,-0.248 0.451,-0.293 0.451,-0.348ZM0.556,-0.348C0.556,-0.291 0.55,-0.242 0.538,-0.201C0.526,-0.161 0.509,-0.128 0.488,-0.101C0.467,-0.075 0.443,-0.054 0.416,-0.04C0.389,-0.025 0.36,-0.015 0.33,-0.009C0.3,-0.003 0.27,-0 0.241,-0L0.078,-0L0.078,-0.689L0.23,-0.689C0.271,-0.689 0.311,-0.685 0.349,-0.676C0.388,-0.667 0.423,-0.65 0.454,-0.626C0.485,-0.602 0.51,-0.567 0.529,-0.522C0.547,-0.478 0.556,-0.42 0.556,-0.348Z" style="fill:white;fill-opacity:0.3;fill-rule:nonzero;"/>
            </g>
            <g transform="matrix(58.0295,0,0,58.0295,1686.06,1164.25)">
            </g>
        </g>
    </g>
</svg>
