<?xml version="1.0" encoding="UTF-8" standalone="no"?>
<svg
   width="100%"
   height="100%"
   viewBox="0 0 1200 617"
   version="1.1"
   xml:space="preserve"
   style="fill-rule:evenodd;clip-rule:evenodd;stroke-linejoin:round;stroke-miterlimit:2;"
   id="svg6"
   sodipodi:docname="Pill New.svg"
   inkscape:version="1.4.2 (1:1.4.2+202505120738+ebf0e940d0)"
   xmlns:inkscape="http://www.inkscape.org/namespaces/inkscape"
   xmlns:sodipodi="http://sodipodi.sourceforge.net/DTD/sodipodi-0.dtd"
   xmlns="http://www.w3.org/2000/svg"
   xmlns:svg="http://www.w3.org/2000/svg"><defs
   id="defs6" /><sodipodi:namedview
   id="namedview6"
   pagecolor="#505050"
   bordercolor="#ffffff"
   borderopacity="1"
   inkscape:showpageshadow="0"
   inkscape:pageopacity="0"
   inkscape:pagecheckerboard="1"
   inkscape:deskcolor="#505050"
   inkscape:zoom="0.82083333"
   inkscape:cx="600.60914"
   inkscape:cy="308.83249"
   inkscape:window-width="1844"
   inkscape:window-height="1016"
   inkscape:window-x="0"
   inkscape:window-y="0"
   inkscape:window-maximized="1"
   inkscape:current-layer="g6" />
    <g
   transform="matrix(1,0,0,1,-150,-441.847)"
   id="g6">
        <g
   transform="matrix(0.85503,0,0,0.85503,96.4439,391.031)"
   id="g5">
            <g
   transform="matrix(1.10354,0,0,1.19597,-99.4781,-100.479)"
   id="g1">
                <path
   d="m 548.17227,226.32319 -215.0213,198.40345 c -127.1711,117.34267 -127.1706,307.87787 7e-4,425.22082 127.1713,117.34296 333.66455,117.34264 460.83558,-4e-5 L 1009.0085,651.54397 c 1.682,-0.93257 3.2677,-2.06756 4.7172,-3.4051 1.4489,-1.33689 2.6789,-2.79998 3.6896,-4.35198 l 215.0248,-198.40671 c 127.1661,-117.33811 127.1643,-307.87064 -0.01,-425.213587 -127.1713,-117.34296 -333.6632,-117.34531 -460.82928,-0.007 L 556.57897,218.56611 c -1.6819,0.93257 -3.2676,2.06756 -4.7164,3.40445 -1.4496,1.33754 -2.6797,2.80063 -3.6903,4.35263 z m 412.97752,405.32963 -201.8705,186.26903 c -108.0148,99.66693 -283.40392,99.6671 -391.41932,-3e-4 -108.0161,-99.66812 -108.0159,-261.50241 0,-361.16934 L 569.72941,270.48318 Z M 604.43774,238.45726 806.31178,52.184973 c 108.01056,-99.66302 283.40042,-99.66384 391.41652,0.004 108.0153,99.667407 108.0144,261.502347 0,361.165367 L 995.85813,599.6269 Z"
   id="path1" />
            </g>
            <g
   id="g4">
                
                
                
            </g>
        </g>
    </g>
</svg>
