<?xml version="1.0" encoding="UTF-8" standalone="no"?>
<!DOCTYPE svg PUBLIC "-//W3C//DTD SVG 1.1//EN" "http://www.w3.org/Graphics/SVG/1.1/DTD/svg11.dtd">
<svg width="100%" height="100%" viewBox="0 0 1200 617" version="1.1" xmlns="http://www.w3.org/2000/svg" xmlns:xlink="http://www.w3.org/1999/xlink" xml:space="preserve" xmlns:serif="http://www.serif.com/" style="fill-rule:evenodd;clip-rule:evenodd;stroke-linejoin:round;stroke-miterlimit:2;">
    <g transform="matrix(1,0,0,1,-150,-441.847)">
        <g transform="matrix(0.85503,0,0,0.85503,96.4439,391.031)">
            <g>
                <g transform="matrix(1.10354,0,0,1.19597,-96.2731,-100.479)">
                    <path d="M794.122,702.635L1092.83,702.635C1252.88,702.635 1382.82,582.736 1382.82,435.055C1382.82,287.374 1252.88,167.476 1092.83,167.476L794.122,167.476L794.122,702.635Z" style="fill:rgb(187,208,209);"/>
                </g>
                <g transform="matrix(1.07813,0,0,1.01031,-94.7931,-72.5919)">
                    <path d="M794.122,702.635L1092.83,702.635C1252.88,702.635 1382.82,582.736 1382.82,435.055C1382.82,287.374 1252.88,167.476 1092.83,167.476L794.122,167.476L794.122,702.635Z" style="fill:white;"/>
                </g>
            </g>
            <g>
                <g transform="matrix(1.10354,0,0,1.19597,-96.2731,-100.479)">
                    <path d="M771.467,167.476L472.764,167.476C312.714,167.476 182.774,287.374 182.774,435.055C182.774,582.736 312.714,702.635 472.764,702.635L771.467,702.635L771.467,167.476Z" style="fill:rgb(28,136,98);"/>
                </g>
                <g transform="matrix(1.0491,0,0,1.01031,-43.0554,-72.5919)">
                    <path d="M771.467,167.476L472.764,167.476C312.714,167.476 182.774,287.374 182.774,435.055C182.774,582.736 312.714,702.635 472.764,702.635L771.467,702.635L771.467,167.476Z" style="fill:rgb(55,175,123);"/>
                </g>
            </g>
            <g transform="matrix(1.10354,0,0,1.19597,-99.4781,-100.479)">
                <path d="M776.85,735.732L472.764,735.732C292.917,735.732 146.904,601.003 146.904,435.055C146.904,269.107 292.917,134.379 472.764,134.379L776.85,134.379C778.754,133.941 780.745,133.709 782.795,133.709C784.844,133.709 786.835,133.941 788.739,134.379L1092.83,134.379C1272.67,134.379 1418.68,269.107 1418.68,435.055C1418.68,601.003 1272.67,735.732 1092.83,735.732L788.739,735.732C786.835,736.17 784.844,736.402 782.795,736.402C780.745,736.402 778.754,736.17 776.85,735.732ZM758.252,179.67L472.764,179.67C320.008,179.67 195.989,294.104 195.989,435.055C195.989,576.007 320.008,690.441 472.764,690.441L758.252,690.441L758.252,179.67ZM807.337,690.441L1092.83,690.441C1245.58,690.441 1369.6,576.007 1369.6,435.055C1369.6,294.104 1245.58,179.67 1092.83,179.67L807.337,179.67L807.337,690.441Z" style="fill:rgb(23,68,66);"/>
            </g>
            <g>
                <path d="M238.423,434.7C238.177,441.595 232.379,446.992 225.485,446.746C218.59,446.5 213.193,440.703 213.439,433.808L214.507,403.895C214.754,397 220.551,391.603 227.445,391.849C234.34,392.095 239.738,397.893 239.491,404.787L238.423,434.7Z" style="fill:white;"/>
                <path d="M259.107,345.567C255.578,351.495 247.9,353.443 241.972,349.914C236.044,346.386 234.096,338.708 237.625,332.78C237.625,332.78 265.966,285.14 314.729,256.789C320.693,253.322 328.351,255.349 331.818,261.313C335.286,267.277 333.259,274.934 327.295,278.402C284.182,303.467 259.107,345.567 259.107,345.567Z" style="fill:white;"/>
                <path d="M378.701,255.524C371.802,255.524 366.201,249.923 366.201,243.024C366.201,236.125 371.802,230.524 378.701,230.524L406.478,230.524C413.377,230.524 418.978,236.125 418.978,243.024C418.978,249.923 413.377,255.524 406.478,255.524L378.701,255.524Z" style="fill:white;"/>
            </g>
        </g>
    </g>
</svg>
